<?xml version="1.0" encoding="UTF-8" standalone="no"?>
<!-- Created with Inkscape (http://www.inkscape.org/) -->
<svg
   xmlns:dc="http://purl.org/dc/elements/1.1/"
   xmlns:cc="http://web.resource.org/cc/"
   xmlns:rdf="http://www.w3.org/1999/02/22-rdf-syntax-ns#"
   xmlns:svg="http://www.w3.org/2000/svg"
   xmlns="http://www.w3.org/2000/svg"
   xmlns:sodipodi="http://sodipodi.sourceforge.net/DTD/sodipodi-0.dtd"
   xmlns:inkscape="http://www.inkscape.org/namespaces/inkscape"
   width="270"
   height="270"
   id="svg2"
   sodipodi:version="0.32"
   inkscape:version="0.45.1"
   version="1.0"
   sodipodi:docname="lilug_logo_button.svg"
   inkscape:output_extension="org.inkscape.output.svg.inkscape"
   sodipodi:docbase="/home/mdrago/Code/lilug/graphics"
   inkscape:export-filename="/home/mdrago/Code/lilug/graphics/lilug_logo_button.png"
   inkscape:export-xdpi="300"
   inkscape:export-ydpi="300">
  <defs
     id="defs4" />
  <sodipodi:namedview
     id="base"
     pagecolor="#ffffff"
     bordercolor="#666666"
     borderopacity="1.0"
     gridtolerance="10000"
     guidetolerance="10"
     objecttolerance="10"
     inkscape:pageopacity="0.0"
     inkscape:pageshadow="2"
     inkscape:zoom="4.042735"
     inkscape:cx="103.5"
     inkscape:cy="85.711416"
     inkscape:document-units="in"
     inkscape:current-layer="layer1"
     width="3in"
     height="3in"
     inkscape:window-width="1024"
     inkscape:window-height="693"
     inkscape:window-x="0"
     inkscape:window-y="25"
     units="in" />
  <metadata
     id="metadata7">
    <rdf:RDF>
      <cc:Work
         rdf:about="">
        <dc:format>image/svg+xml</dc:format>
        <dc:type
           rdf:resource="http://purl.org/dc/dcmitype/StillImage" />
      </cc:Work>
    </rdf:RDF>
  </metadata>
  <g
     inkscape:label="Layer 1"
     inkscape:groupmode="layer"
     id="layer1">
    <path
       style="fill:#000000"
       d="M 56.265101,147.01141 C 56.26527,145.17757 56.491674,139.35595 56.768219,134.07447 C 57.044765,128.79299 57.554433,116.54955 57.900817,106.86683 L 58.530604,89.261907 L 56.59747,87.223357 C 55.147837,85.694673 54.664343,84.727299 54.664343,83.355613 C 54.664343,82.349542 54.905412,81.550647 55.197823,81.52641 C 56.579589,81.411832 56.132281,81.949258 56.132281,82.536076 C 56.132281,83.289331 56.084237,83.657926 56.931643,83.65216 C 59.160162,83.636995 59.632814,82.919952 59.350567,79.982533 C 59.206612,78.484336 59.293654,77.258525 59.543998,77.258525 C 60.177073,77.258525 60.116733,75.260241 59.471619,74.861525 C 59.147172,74.661004 59.26533,74.045163 59.778534,73.261917 C 60.339044,72.406478 60.567751,71.011497 60.475168,69.012847 C 60.39368,67.253584 60.595322,65.779338 60.968474,65.406181 C 61.315607,65.059054 61.59962,64.324453 61.59962,63.773732 C 61.59962,62.557949 64.391142,59.653605 65.559704,59.653605 C 66.045307,59.653605 66.400965,59.202517 66.400965,58.586638 C 66.400965,57.993872 66.756623,57.51967 67.201188,57.51967 C 67.645757,57.51967 68.00141,57.993872 68.00141,58.586638 C 68.00141,59.202517 68.35707,59.653605 68.842673,59.653605 C 70.011235,59.653605 72.802758,62.557949 72.802758,63.773732 C 72.802758,64.324453 73.084874,65.057158 73.429682,65.401958 C 73.80646,65.778736 74.003489,67.330326 73.923489,69.290566 C 73.824919,71.705856 74.017338,72.803024 74.665024,73.518719 C 75.241274,74.155452 75.345814,74.60501 74.971441,74.836384 C 74.328996,75.233439 74.188403,77.258708 74.803321,77.258211 C 75.023383,77.258016 75.118203,78.488625 75.014036,79.992874 C 74.810922,82.926045 75.288437,83.637309 77.470732,83.65216 C 78.31814,83.657926 78.270096,83.403894 78.270096,82.650652 C 78.270096,82.063808 77.994631,81.52641 79.204554,81.52641 C 79.497968,81.52641 79.738034,82.349542 79.738034,83.355613 C 79.738034,84.730005 79.255565,85.691666 77.797535,87.223357 L 75.857033,89.261907 L 76.767257,111.93491 C 77.267877,124.40508 77.81745,138.14893 77.988527,142.47682 L 78.299572,150.34569 L 67.282183,150.34569 L 56.264788,150.34569 L 56.265101,147.01141 z M 76.375704,139.65722 C 76.175975,134.00897 76.014996,128.6425 75.737927,128.29181 C 74.000244,126.09242 64.803316,125.66336 60.466477,127.18094 C 58.103349,128.00788 58.443288,127.62567 57.994671,140.87636 L 57.863977,148.72385 L 67.158204,148.72385 L 76.452434,148.66658 L 76.375704,139.65722 z M 66.934447,105.26638 C 70.015312,105.26638 73.297227,105.46134 74.227601,105.69961 L 74.88811,105.9037 L 74.703805,100.00315 C 74.194619,86.721426 74.600815,85.185552 73.821834,84.727299 C 73.152424,84.333499 72.802758,85.108012 72.802758,86.327744 C 72.802758,87.207995 72.219,87.75635 71.925585,87.75635 C 71.632172,87.75635 71.392103,87.207995 71.392103,86.327744 L 71.105695,84.841861 L 67.201188,84.727299 L 63.124837,84.841861 L 63.010274,86.327744 C 63.010274,87.207995 62.655639,87.813626 62.362225,87.813626 C 62.06881,87.813626 61.59962,87.207995 61.59962,86.327744 C 61.59962,85.108012 61.212638,84.276028 60.580544,84.727299 C 60.259604,84.956425 60.150766,86.432004 59.640586,99.731024 L 59.627421,105.81773 L 59.907331,105.7139 C 60.69138,105.46777 63.853583,105.26638 66.934447,105.26638 z M 73.76599,80.504989 C 73.624405,79.031462 73.448347,77.708359 73.463866,77.380174 C 73.478136,77.078425 70.526561,76.991786 67.201188,76.991786 C 63.875812,76.991786 61.01369,77.08759 60.938508,77.380174 C 60.839466,77.765633 61.121662,78.916886 60.980077,80.390427 L 61.009049,83.184129 L 67.201188,83.126854 L 73.90886,83.126854 L 73.76599,80.504989 z M 64.334636,73.737243 L 61.45719,73.865651 L 61.417489,76.045409 L 64.247579,75.894854 L 64.334636,73.737243 z M 68.836206,73.661443 L 65.437882,73.666214 L 65.42528,75.887024 L 68.77625,75.81121 L 68.836206,73.661443 z M 72.685902,73.920377 L 69.974196,73.708795 L 69.91424,75.860079 L 72.673302,75.976956 L 72.685902,73.920377 z M 64.012285,72.45719 C 65.215,72.45719 65.236836,72.392228 64.505423,70.990109 C 63.464563,68.994779 63.536808,68.049852 64.858723,66.369306 L 65.983891,64.938895 L 64.458613,65.304195 C 61.314424,66.057242 61.524387,66.276523 61.524387,69.751067 C 61.524387,72.485612 61.725227,72.518061 62.48281,72.60917 C 62.970606,72.667831 63.320144,72.45719 64.012285,72.45719 z M 72.877989,69.808552 C 72.877989,66.396838 73.07882,66.055057 69.943766,65.304195 L 68.418482,64.938895 L 69.543653,66.369306 C 70.860944,68.043968 70.937437,68.995575 69.912659,70.959843 C 69.180161,72.363885 69.201533,72.401485 70.849538,72.608295 C 71.7771,72.724688 71.890448,72.745305 72.649719,72.733446 C 72.874706,72.729825 72.877989,71.558715 72.877989,69.808552 z M 68.579688,69.906511 C 69.608415,67.802933 67.833063,66.751823 66.618156,67.024615 C 65.537062,67.26735 65.147634,69.023174 65.650844,69.791949 C 66.17598,70.594204 67.830062,70.803314 68.579688,69.906511 z M 156.82632,149.73408 C 153.69303,149.15583 147.8583,147.32033 145.72467,146.24174 C 143.32006,145.02614 140.03552,141.79233 138.822,139.44568 C 137.84276,137.55212 137.66883,136.0925 137.45789,127.99969 L 137.21616,118.72405 L 147.82146,127.65324 C 153.65439,132.56429 161.95392,139.49913 166.2649,143.06395 C 170.57587,146.62877 174.11685,149.72552 174.13378,149.94558 C 174.17675,150.50504 160.06967,150.33265 156.82632,149.73408 z M 221.16911,149.50204 C 214.84981,147.80262 210.43554,145.18614 207.93358,141.65691 C 206.30224,139.35577 204.8669,135.93875 205.53438,135.94531 C 205.73917,135.9473 211.90841,139.18551 219.24381,143.14135 L 232.58086,150.33374 L 228.31301,150.3046 C 225.96569,150.28858 222.75092,149.92742 221.16911,149.50204 z M 219.44515,142.49401 L 205.24246,134.76766 L 204.91238,132.02038 C 204.73084,130.50938 204.58022,124.63421 204.57766,118.96446 C 204.57395,110.66681 204.7111,108.68944 205.28081,108.82827 C 205.6701,108.92315 211.43029,110.92131 218.08129,113.26862 L 230.17397,117.5365 L 230.17709,126.07574 C 230.1802,134.60656 230.6292,137.88744 231.90426,138.69676 C 232.27641,138.93296 233.56396,139.12988 234.76549,139.13438 C 238.42309,139.14806 238.94866,138.09224 239.17089,130.28445 L 239.35912,123.67154 L 236.9036,123.67154 L 234.44807,123.67154 L 234.44807,121.53761 C 234.44807,120.36394 234.65941,119.40369 234.91773,119.40369 C 235.17606,119.40369 241.82548,121.68433 249.69423,124.47177 C 257.56299,127.25921 264.07893,129.53986 264.17411,129.53986 C 264.2693,129.53986 264.28172,133.92109 264.20177,139.27591 L 264.05635,149.01197 L 256.03351,149.15864 L 248.01064,149.30529 L 246.81697,146.84832 L 245.62329,144.39136 L 243.69159,146.08741 C 241.51826,147.99563 238.29713,149.51168 235.51503,149.93575 C 233.87084,150.18639 231.95168,149.29766 219.44515,142.49401 z M 156.46113,133.98883 L 137.42405,118.06997 L 137.3891,108.56484 L 137.35418,99.059699 L 143.35587,102.26264 C 146.65679,104.02426 152.3584,107.10124 156.02609,109.10036 L 162.69463,112.73514 L 162.96137,125.42562 C 163.25247,139.27465 163.21489,139.1262 166.429,139.1262 C 167.30925,139.1262 168.35642,138.91904 168.75606,138.66585 C 169.9168,137.93043 170.382,134.13769 170.40689,125.20637 L 170.43013,116.87177 L 182.96467,123.60592 L 195.4992,130.34009 L 195.50152,133.01102 C 195.50447,136.44157 194.80918,138.81465 193.06278,141.33473 C 190.42323,145.1436 183.72762,148.82647 178.09777,149.56614 L 175.49821,149.90766 L 156.46113,133.98883 z M 90.407693,140.1206 C 90.407693,135.08362 90.504607,131.0625 90.623048,131.18476 C 90.929299,131.50086 97.705333,146.83217 98.129603,148.16894 C 98.465182,149.22625 98.290979,149.27872 94.444765,149.27872 L 90.407693,149.27872 L 90.407693,140.1206 z M 94.984421,138.86424 L 90.381378,128.44976 L 90.527902,119.83837 L 90.674436,111.22698 L 101.87757,129.83249 C 108.0393,140.0655 113.16073,148.62714 113.25854,148.85837 C 113.35635,149.08955 110.32037,149.27872 106.51191,149.27872 L 99.58747,149.27872 L 94.984421,138.86424 z M 109.73421,141.40986 C 107.10947,137.08196 101.6812,128.09985 97.671387,121.4496 L 90.380829,109.35822 L 90.52763,100.70096 L 90.674436,92.043714 L 103.34465,108.81724 L 116.01487,125.59078 L 116.01487,130.76621 L 116.01487,135.94165 L 119.88262,135.94626 L 123.75037,135.95086 L 127.61812,141.0042 C 130.44951,144.70347 131.48587,146.48911 131.48587,147.66812 L 131.48587,149.27872 L 122.99617,149.27872 L 114.50648,149.27872 L 109.73421,141.40986 z M 20.375755,132.57324 L 32.524804,116.37654 L 32.669946,126.15909 C 32.79175,134.36864 32.941864,135.94165 33.603539,135.94165 C 34.037187,135.94165 34.39199,136.05021 34.39199,136.1829 C 34.39199,136.31558 32.755322,139.13637 30.754946,142.45131 L 27.1179,148.4785 L 17.672302,148.62423 L 8.2267047,148.76996 L 20.375755,132.57324 z M 28.142563,148.34513 C 28.260997,148.12507 29.970956,145.24426 31.942473,141.94333 L 35.527049,135.94165 L 41.139031,135.94165 C 44.225621,135.94165 46.670991,136.14003 46.573184,136.38251 C 46.475377,136.62499 45.224478,139.50581 43.793408,142.78431 L 41.191458,148.74524 L 34.559342,148.74524 C 30.91168,148.74524 28.02413,148.56519 28.142563,148.34513 z M 44.703547,142.35731 C 46.220875,138.84392 47.642373,135.96313 47.862434,135.9555 C 48.082495,135.9479 48.262545,138.82245 48.262545,142.34345 L 48.262545,148.74524 L 45.103662,148.74524 L 41.944773,148.74524 L 44.703547,142.35731 z M 7.8430393,132.37167 L 7.9845911,117.06508 L 20.254696,106.7792 L 32.524804,96.493318 L 32.671057,105.6141 L 32.817306,114.73489 L 20.471764,131.20658 C 13.681717,140.26601 8.0306569,147.67827 7.9138551,147.67827 C 7.7970525,147.67827 7.7651856,140.79031 7.8430393,132.37167 z M 128.08288,140.49311 C 126.43353,138.30179 125.08408,136.38124 125.08408,136.22526 C 125.08408,136.06927 126.52448,135.94165 128.28498,135.94165 L 131.48587,135.94165 L 131.48587,140.20951 C 131.48587,142.55684 131.39492,144.47738 131.28376,144.47738 C 131.17261,144.47738 129.73221,142.68445 128.08288,140.49311 z M 182.8336,122.74729 L 170.43013,116.02223 L 170.43013,106.19863 C 170.43013,100.79563 170.634,96.455026 170.88318,96.55283 C 171.13236,96.650632 176.77255,98.651204 183.41691,100.99853 L 195.49759,105.26638 L 195.50069,117.40311 C 195.50241,124.07832 195.4438,129.52467 195.37045,129.50611 C 195.29708,129.48754 189.65551,126.44608 182.8336,122.74729 z M 250.98603,124.18172 C 232.44406,117.63166 234.44807,118.63617 234.44807,115.89192 L 234.44807,113.53537 L 249.38558,113.53537 L 264.32311,113.53537 L 264.32311,121.00413 C 264.32311,126.63706 264.15919,128.46663 263.65625,128.44743 C 263.28947,128.43344 257.58787,126.51385 250.98603,124.18172 z M 103.07791,107.29067 L 90.407693,90.432077 L 90.407693,86.512721 L 90.407693,82.593364 L 92.298406,82.593364 C 93.966925,82.593364 95.471575,83.67058 105.10199,91.759822 L 116.01487,100.92628 L 116.01487,112.56566 C 116.01487,118.96731 115.95485,124.19249 115.8815,124.17714 C 115.80814,124.1618 110.04653,116.56289 103.07791,107.29067 z M 217.10988,112.20726 L 204.83977,107.79834 L 204.96867,102.79799 C 205.12905,96.576741 205.8864,92.780981 207.42343,90.495144 C 208.87161,88.341441 213.50089,85.125713 217.10988,83.766462 L 219.77728,82.761829 L 240.82545,87.114807 L 261.87362,91.467786 L 262.54017,93.101373 C 263.23044,94.792992 264.32311,102.3215 264.32311,105.38577 L 264.32311,107.13358 L 251.59275,107.13358 L 238.86238,107.13358 L 238.59474,100.63523 C 238.35089,94.713858 238.22073,94.050719 237.12873,93.166466 C 235.57675,91.909763 233.29442,91.930209 231.70639,93.215008 C 230.46567,94.218817 230.44438,94.401232 230.27494,105.48512 C 230.18035,111.67325 229.94029,116.70925 229.74148,116.67622 C 229.54264,116.6432 223.85844,114.63217 217.10988,112.20726 z M 7.717906,107.88312 L 7.7179626,99.398081 L 20.254754,92.64814 L 32.791545,85.898201 L 32.791545,90.580396 L 32.791545,95.262605 L 28.123568,99.222974 C 25.556183,101.40119 20.334719,105.79081 16.520316,108.97771 C 12.705914,112.16462 9.1649218,115.1312 8.6514446,115.57011 C 7.7679884,116.3253 7.7178527,115.91246 7.717906,107.88312 z M 149.50785,104.83935 L 137.38805,98.331113 L 137.37111,91.563027 L 137.35418,84.794954 L 141.75542,86.307127 C 146.61759,87.977684 160.55761,92.949433 162.02777,93.537334 C 162.86376,93.871624 162.96137,94.824983 162.96137,102.65605 C 162.96137,109.31106 162.80197,111.395 162.29452,111.37453 C 161.92775,111.35971 156.17374,108.41889 149.50785,104.83935 z M 182.57011,100.01274 L 170.43659,95.663701 L 170.43337,89.128532 L 170.43013,82.593364 L 182.96696,82.593364 L 195.50381,82.593364 L 195.50381,93.529766 C 195.50381,99.544779 195.32378,104.44267 195.10371,104.41398 C 194.88363,104.38527 189.24351,102.40471 182.57011,100.01274 z M 105.6455,91.262467 L 95.615317,82.860115 L 101.14712,82.710672 L 106.67891,82.561216 L 111.3469,85.058371 L 116.01487,87.555542 L 116.01487,93.610167 C 116.01487,96.940223 115.93856,99.664819 115.84527,99.664819 C 115.752,99.664819 111.1621,95.883753 105.6455,91.262467 z M 7.833745,92.449018 L 7.9845911,86.17417 L 12.785936,84.412554 C 17.358974,82.734728 17.948771,82.649592 25.189414,82.622151 L 32.791545,82.593364 L 32.791545,83.847073 C 32.791545,84.931494 31.3328,85.881153 21.988518,90.879976 C 16.046852,94.058536 10.397406,97.123723 9.4341936,97.691518 L 7.682899,98.723854 L 7.833745,92.449018 z M 149.49092,88.295332 C 142.2529,85.70853 137.35418,83.682412 137.35418,83.275565 C 137.35418,82.740571 140.11693,82.593364 150.15776,82.593364 L 162.96137,82.593364 L 162.96137,87.66145 C 162.96137,91.386038 162.78458,92.716737 162.29452,92.681216 C 161.92775,92.654638 156.16613,90.680997 149.49092,88.295332 z M 241.91681,86.631715 C 231.794,84.51105 223.15156,82.646364 222.71143,82.487965 C 221.01702,81.878164 227.58619,81.263161 234.98154,81.339223 C 243.41817,81.426004 248.33488,82.374879 253.83823,84.978376 C 256.55618,86.26418 262.03528,90.590843 260.85545,90.519657 C 260.56205,90.501968 252.03967,88.752394 241.91681,86.631715 z M 112.14712,84.693073 C 110.45998,83.822246 109.07959,82.993556 109.07959,82.851552 C 109.07959,82.709548 110.64003,82.593364 112.54723,82.593364 L 116.01487,82.593364 L 116.01487,84.46056 C 116.01487,85.487509 115.83482,86.316199 115.61476,86.30208 C 115.39469,86.287973 113.83426,85.563925 112.14712,84.693073 z M 7.7178496,83.927069 C 7.7178496,82.62453 7.8082422,82.594017 11.585601,82.621157 L 15.453351,82.648952 L 11.985713,83.946014 C 7.6931606,85.551635 7.7178496,85.551727 7.7178496,83.927069 z "
       id="path2236"
       sodipodi:nodetypes="cscccssssssssssssssssssssssssssscccccccccsscccccccccssscccccssscccccssscccccccccccccccccccccscccsscccccsssccssccsscccssccsscccccccsscccsscccccssscccccccscccccccccsscccccsccccssccccccccscccccccccccccccccccccccsscccccccccscccccsccccccccccccsccscccsccccscccscccccccscccccccccsccccsccccccccccssssccccccccssccccccsssccccccccsccccccccscccccccsccccscccsccssssccscccscccccc"
       inkscape:export-filename="/home/mdrago/Desktop/lilug_logo_button_big.png"
       inkscape:export-xdpi="300.00864"
       inkscape:export-ydpi="300.00864" />
    <flowRoot
       xml:space="preserve"
       id="flowRoot2238"
       style="font-size:56px;font-style:normal;font-variant:normal;font-weight:bold;font-stretch:normal;text-align:center;line-height:100%;writing-mode:lr-tb;text-anchor:middle;font-family:DejaVu Sans"
       transform="matrix(0.2663941,0,0,0.2663941,0.6021297,22.231205)"
       inkscape:export-filename="/home/mdrago/Desktop/lilug_logo_button_big.png"
       inkscape:export-xdpi="300.00864"
       inkscape:export-ydpi="300.00864"><flowRegion
         id="flowRegion2240"><rect
           id="rect2242"
           width="968.50958"
           height="177.49731"
           x="16"
           y="522.09448"
           style="font-size:56px;font-style:normal;font-variant:normal;font-weight:bold;font-stretch:normal;text-align:center;line-height:100%;writing-mode:lr-tb;text-anchor:middle;font-family:DejaVu Sans" /></flowRegion><flowPara
         id="flowPara2188">Long Island Linux</flowPara><flowPara
         id="flowPara2192">Users Group</flowPara><flowPara
         id="flowPara2194"
         style="font-size:28px">www.lilug.org</flowPara></flowRoot>  </g>
</svg>
