<?xml version="1.0" encoding="UTF-8" standalone="no"?>
<!-- Created with Inkscape (http://www.inkscape.org/) -->
<svg
   xmlns:dc="http://purl.org/dc/elements/1.1/"
   xmlns:cc="http://web.resource.org/cc/"
   xmlns:rdf="http://www.w3.org/1999/02/22-rdf-syntax-ns#"
   xmlns:svg="http://www.w3.org/2000/svg"
   xmlns="http://www.w3.org/2000/svg"
   xmlns:sodipodi="http://sodipodi.sourceforge.net/DTD/sodipodi-0.dtd"
   xmlns:inkscape="http://www.inkscape.org/namespaces/inkscape"
   width="202.5"
   height="202.5"
   id="svg2"
   sodipodi:version="0.32"
   inkscape:version="0.45.1"
   version="1.0"
   sodipodi:docname="lilug_logo_mini_button.svg"
   inkscape:output_extension="org.inkscape.output.svg.inkscape"
   sodipodi:docbase="/home/mdrago/Code/lilug/graphics"
   inkscape:export-filename="/home/mdrago/Code/lilug/graphics/lilug_logo_button.png"
   inkscape:export-xdpi="300"
   inkscape:export-ydpi="300">
  <defs
     id="defs4" />
  <sodipodi:namedview
     id="base"
     pagecolor="#ffffff"
     bordercolor="#666666"
     borderopacity="1.0"
     gridtolerance="10000"
     guidetolerance="10"
     objecttolerance="10"
     inkscape:pageopacity="0.0"
     inkscape:pageshadow="2"
     inkscape:zoom="4.042735"
     inkscape:cx="103.5"
     inkscape:cy="85.711416"
     inkscape:document-units="in"
     inkscape:current-layer="layer1"
     width="2.25in"
     height="2.25in"
     inkscape:window-width="1024"
     inkscape:window-height="693"
     inkscape:window-x="0"
     inkscape:window-y="25"
     units="in" />
  <metadata
     id="metadata7">
    <rdf:RDF>
      <cc:Work
         rdf:about="">
        <dc:format>image/svg+xml</dc:format>
        <dc:type
           rdf:resource="http://purl.org/dc/dcmitype/StillImage" />
      </cc:Work>
    </rdf:RDF>
  </metadata>
  <g
     inkscape:label="Layer 1"
     inkscape:groupmode="layer"
     id="layer1">
    <path
       style="fill:#000000"
       d="M 66.609004,125.12285 C 66.609076,124.3458 66.70501,121.87901 66.82219,119.64109 C 66.939372,117.40317 67.155333,112.21526 67.302106,108.1124 L 67.568965,100.65268 L 66.749839,99.788881 C 66.135586,99.141132 65.930716,98.731227 65.930716,98.150003 C 65.930716,97.723701 66.032864,97.385185 66.156767,97.374915 C 66.742263,97.326365 66.552725,97.554088 66.552725,97.802741 C 66.552725,98.121918 66.532367,98.278102 66.891439,98.275658 C 67.835728,98.269233 68.036005,97.9654 67.916408,96.720729 C 67.85541,96.085897 67.892293,95.566485 67.998371,95.566485 C 68.266624,95.566485 68.241056,94.719752 67.967701,94.550805 C 67.830224,94.465838 67.880291,94.204888 68.09775,93.873004 C 68.335255,93.510529 68.432165,92.919434 68.392935,92.072546 C 68.358407,91.327094 68.443848,90.702412 68.601963,90.544294 C 68.749054,90.397207 68.869399,90.085934 68.869399,89.852577 C 68.869399,89.337414 70.05225,88.106757 70.547404,88.106757 C 70.753168,88.106757 70.903872,87.915617 70.903872,87.654651 C 70.903872,87.403479 71.054574,87.202545 71.24295,87.202545 C 71.431327,87.202545 71.582028,87.403479 71.582028,87.654651 C 71.582028,87.915617 71.732732,88.106757 71.938496,88.106757 C 72.43365,88.106757 73.616502,89.337414 73.616502,89.852577 C 73.616502,90.085934 73.736042,90.396403 73.882148,90.542505 C 74.0418,90.702157 74.125287,91.359612 74.091389,92.190224 C 74.049622,93.213654 74.131155,93.678556 74.405599,93.981819 C 74.649774,94.251621 74.69407,94.442112 74.535437,94.540152 C 74.263214,94.708396 74.203641,95.566563 74.4642,95.566352 C 74.557447,95.56627 74.597625,96.087715 74.553486,96.72511 C 74.467421,97.967982 74.669758,98.269366 75.594461,98.275658 C 75.953533,98.278102 75.933176,98.17046 75.933176,97.85129 C 75.933176,97.602626 75.816453,97.374915 76.329134,97.374915 C 76.453462,97.374915 76.555185,97.723701 76.555185,98.150003 C 76.555185,98.732374 76.350748,99.139858 75.732937,99.788881 L 74.910689,100.65268 L 75.296378,110.2599 C 75.508506,115.54388 75.741376,121.36756 75.813866,123.20141 L 75.945666,126.53569 L 71.27727,126.53569 L 66.608872,126.53569 L 66.609004,125.12285 z M 75.130466,122.00666 C 75.045834,119.61334 74.977623,117.3394 74.86022,117.1908 C 74.123912,116.25886 70.2269,116.07705 68.389252,116.72009 C 67.387925,117.07049 67.531967,116.90854 67.341875,122.52325 L 67.286496,125.84846 L 71.224736,125.84846 L 75.162978,125.8242 L 75.130466,122.00666 z M 71.129923,107.43424 C 72.435378,107.43424 73.826023,107.51686 74.220251,107.61782 L 74.500127,107.70429 L 74.422032,105.20406 C 74.206274,99.576198 74.378392,98.925402 74.048315,98.731227 C 73.764666,98.564362 73.616502,98.892547 73.616502,99.409383 C 73.616502,99.782372 73.369146,100.01473 73.244817,100.01473 C 73.120489,100.01473 73.018765,99.782372 73.018765,99.409383 L 72.897406,98.779771 L 71.24295,98.731227 L 69.515679,98.779771 L 69.467135,99.409383 C 69.467135,99.782372 69.316865,100.039 69.192537,100.039 C 69.068209,100.039 68.869399,99.782372 68.869399,99.409383 C 68.869399,98.892547 68.705423,98.54001 68.437586,98.731227 C 68.301594,98.828315 68.255477,99.453562 68.039298,105.08875 L 68.03372,107.66787 L 68.152325,107.62387 C 68.484551,107.51958 69.82447,107.43424 71.129923,107.43424 z M 74.024652,96.942108 C 73.964658,96.317731 73.890057,95.757093 73.896633,95.618032 C 73.90268,95.490171 72.65201,95.45346 71.24295,95.45346 C 69.833889,95.45346 68.621124,95.494055 68.589266,95.618032 C 68.547299,95.781362 68.666874,96.269182 68.60688,96.893565 L 68.619157,98.07734 L 71.24295,98.053071 L 74.08519,98.053071 L 74.024652,96.942108 z M 70.028307,94.074413 L 68.809047,94.128823 L 68.792224,95.052452 L 69.991418,94.988657 L 70.028307,94.074413 z M 71.935756,94.042294 L 70.495785,94.044317 L 70.490445,94.985339 L 71.910351,94.953214 L 71.935756,94.042294 z M 73.566987,94.152013 L 72.417956,94.062359 L 72.392551,94.973922 L 73.561648,95.023446 L 73.566987,94.152013 z M 69.891717,93.532016 C 70.401343,93.532016 70.410596,93.50449 70.100674,92.910371 C 69.659631,92.06489 69.690243,91.664496 70.250378,90.952399 L 70.727145,90.346292 L 70.080839,90.50108 C 68.748553,90.820168 68.83752,90.913084 68.83752,92.385352 C 68.83752,93.54406 68.922623,93.55781 69.243633,93.596415 C 69.450326,93.621272 69.598436,93.532016 69.891717,93.532016 z M 73.648379,92.40971 C 73.648379,90.964066 73.733478,90.819243 72.405062,90.50108 L 71.758753,90.346292 L 72.235523,90.952399 C 72.793698,91.662003 72.82611,92.065227 72.391881,92.897546 C 72.0815,93.492481 72.090555,93.508413 72.788864,93.596045 C 73.1819,93.645363 73.229929,93.654099 73.551654,93.649075 C 73.646989,93.64754 73.648379,93.151306 73.648379,92.40971 z M 71.827062,92.451218 C 72.262963,91.55987 71.510694,91.114483 70.995902,91.230073 C 70.53781,91.332927 70.372798,92.076922 70.586023,92.402675 C 70.808539,92.742614 71.509423,92.831221 71.827062,92.451218 z M 109.21978,126.27653 C 107.89211,126.03151 105.41976,125.25375 104.51568,124.79673 C 103.49678,124.28163 102.10502,122.91137 101.59082,121.91703 C 101.17588,121.11467 101.10218,120.49619 101.0128,117.06703 L 100.91037,113.13666 L 105.40415,116.92023 C 107.87574,119.00118 111.3925,121.93968 113.21919,123.45019 C 115.04588,124.96071 116.54629,126.2729 116.55346,126.36615 C 116.57168,126.60321 110.59409,126.53016 109.21978,126.27653 z M 136.48374,126.17821 C 133.80607,125.45811 131.9356,124.34943 130.87545,122.85399 C 130.18421,121.87893 129.576,120.43104 129.85884,120.43382 C 129.94561,120.43467 132.5597,121.80679 135.66794,123.48299 L 141.31924,126.53062 L 139.51082,126.51828 C 138.51619,126.51149 137.154,126.35845 136.48374,126.17821 z M 135.75325,123.2087 L 129.73514,119.93481 L 129.59527,118.77071 C 129.51836,118.13045 129.45453,115.64097 129.45345,113.23853 C 129.45187,109.72257 129.50999,108.8847 129.75139,108.94353 C 129.91634,108.98372 132.35712,109.83041 135.17533,110.82503 L 140.29936,112.63346 L 140.30069,116.25179 C 140.302,119.86655 140.49226,121.25676 141.03254,121.59969 C 141.19023,121.69977 141.73581,121.78321 142.24493,121.78512 C 143.79477,121.79091 144.01746,121.34353 144.11163,118.03515 L 144.19139,115.23306 L 143.15091,115.23306 L 142.11043,115.23306 L 142.11043,114.32884 C 142.11043,113.83153 142.19998,113.42464 142.30944,113.42464 C 142.41889,113.42464 145.23645,114.39102 148.57068,115.57214 C 151.90491,116.75326 154.6659,117.71964 154.70624,117.71964 C 154.74657,117.71964 154.75183,119.57609 154.71796,121.8451 L 154.65634,125.97055 L 151.25682,126.0327 L 147.8573,126.09484 L 147.3515,125.05375 L 146.8457,124.01266 L 146.02718,124.73132 C 145.10627,125.53989 143.74139,126.18229 142.56253,126.36199 C 141.86584,126.46819 141.05264,126.0916 135.75325,123.2087 z M 109.06504,119.6048 L 100.99846,112.85951 L 100.98365,108.8319 L 100.96885,104.80429 L 103.51195,106.16147 C 104.91065,106.90792 107.32659,108.21173 108.8807,109.05882 L 111.70636,110.59898 L 111.81939,115.97631 C 111.94273,121.84456 111.92681,121.78165 113.28872,121.78165 C 113.66171,121.78165 114.10543,121.69388 114.27476,121.58659 C 114.76661,121.27498 114.96372,119.66788 114.97427,115.88341 L 114.98412,112.3518 L 120.29537,115.20526 L 125.60664,118.05872 L 125.60762,119.19047 C 125.60886,120.6441 125.31426,121.64965 124.57425,122.71748 C 123.4558,124.33141 120.61866,125.89195 118.23313,126.20537 L 117.13162,126.35008 L 109.06504,119.6048 z M 81.076237,122.20301 C 81.076237,120.06869 81.117302,118.36483 81.167489,118.41663 C 81.297257,118.55057 84.168464,125.0469 84.34824,125.61333 C 84.490434,126.06135 84.416619,126.08358 82.786864,126.08358 L 81.076237,126.08358 L 81.076237,122.20301 z M 83.015533,121.67065 L 81.065086,117.25773 L 81.127173,113.60883 L 81.189264,109.95993 L 85.936365,117.84363 C 88.547272,122.17966 90.71738,125.80749 90.758819,125.90547 C 90.800267,126.00342 89.513829,126.08358 87.900074,126.08358 L 84.965981,126.08358 L 83.015533,121.67065 z M 89.265459,122.74931 C 88.153275,120.91545 85.853157,117.10947 84.15408,114.29156 L 81.064854,109.16808 L 81.127057,105.49974 L 81.189264,101.83141 L 86.55801,108.93885 L 91.92676,116.0463 L 91.92676,118.23928 L 91.92676,120.43227 L 93.565637,120.43422 L 95.204523,120.43617 L 96.843401,122.57742 C 98.043145,124.14491 98.482279,124.90154 98.482279,125.40112 L 98.482279,126.08358 L 94.884943,126.08358 L 91.287607,126.08358 L 89.265459,122.74931 z M 51.401621,119.00497 L 56.549534,112.14195 L 56.611036,116.28711 C 56.662647,119.76574 56.726255,120.43227 57.006626,120.43227 C 57.190376,120.43227 57.340716,120.47827 57.340716,120.53449 C 57.340716,120.59072 56.647212,121.78597 55.799593,123.1906 L 54.258468,125.74451 L 50.256087,125.80625 L 46.253706,125.868 L 51.401621,119.00497 z M 54.692649,125.68799 C 54.742832,125.59474 55.467393,124.37406 56.302783,122.97535 L 57.821675,120.43227 L 60.199639,120.43227 C 61.507518,120.43227 62.543695,120.51633 62.502251,120.61908 C 62.460807,120.72182 61.930764,121.94251 61.324377,123.33171 L 60.221853,125.85753 L 57.411628,125.85753 C 55.866006,125.85753 54.642465,125.78124 54.692649,125.68799 z M 61.71003,123.15077 C 62.352967,121.66205 62.955298,120.44137 63.048545,120.43814 C 63.14179,120.43492 63.218083,121.65295 63.218083,123.1449 L 63.218083,125.85753 L 61.879571,125.85753 L 60.541055,125.85753 L 61.71003,123.15077 z M 46.091136,118.91956 L 46.151116,112.4337 L 51.350325,108.07527 L 56.549534,103.71684 L 56.611506,107.58158 L 56.673477,111.44634 L 51.442303,118.42588 C 48.565158,122.26463 46.170635,125.40542 46.121143,125.40542 C 46.07165,125.40542 46.058147,122.48679 46.091136,118.91956 z M 97.040329,122.36086 C 96.341457,121.43233 95.769652,120.61853 95.769652,120.55245 C 95.769652,120.48634 96.379993,120.43227 97.125966,120.43227 L 98.482279,120.43227 L 98.482279,122.24069 C 98.482279,123.23532 98.443742,124.04911 98.396643,124.04911 C 98.349543,124.04911 97.73921,123.28939 97.040329,122.36086 z M 120.23984,114.84142 L 114.98412,111.99182 L 114.98412,107.82926 C 114.98412,105.53986 115.0705,103.70061 115.17609,103.74205 C 115.28168,103.7835 117.67159,104.6312 120.48701,105.62583 L 125.60595,107.43424 L 125.60726,112.57694 C 125.60799,115.40542 125.58316,117.71321 125.55208,117.70534 C 125.52099,117.69747 123.13049,116.40871 120.23984,114.84142 z M 149.11805,115.44924 C 141.26127,112.67378 142.11043,113.09942 142.11043,111.9366 L 142.11043,110.93806 L 148.43989,110.93806 L 154.76937,110.93806 L 154.76937,114.1028 C 154.76937,116.48964 154.69992,117.26488 154.4868,117.25674 C 154.33139,117.25082 151.91545,116.43743 149.11805,115.44924 z M 86.444984,108.292 L 81.076237,101.14851 L 81.076237,99.487763 L 81.076237,97.827015 L 81.877388,97.827015 C 82.584389,97.827015 83.221954,98.283463 87.302649,101.71112 L 91.92676,105.59522 L 91.92676,110.52716 C 91.92676,113.23973 91.901331,115.4538 91.870243,115.44729 C 91.839164,115.4408 89.397794,112.22091 86.444984,108.292 z M 134.76372,110.3753 L 129.56451,108.50711 L 129.61913,106.38831 C 129.68708,103.75219 130.008,102.14381 130.65928,101.17523 C 131.27293,100.26265 133.23448,98.900047 134.76372,98.324092 L 135.89398,97.898399 L 144.81271,99.742885 L 153.73145,101.58737 L 154.01389,102.27957 C 154.30638,102.99636 154.76937,106.18641 154.76937,107.48483 L 154.76937,108.22543 L 149.37514,108.22543 L 143.9809,108.22543 L 143.8675,105.47189 C 143.76417,102.96283 143.70902,102.68183 143.2463,102.30715 C 142.58869,101.77465 141.62159,101.78331 140.9487,102.32772 C 140.42297,102.75307 140.41395,102.83036 140.34215,107.52693 C 140.30207,110.14903 140.20035,112.28293 140.1161,112.26893 C 140.03185,112.25494 137.62329,111.40281 134.76372,110.3753 z M 46.038113,108.54303 L 46.038138,104.94768 L 51.350349,102.08752 L 56.66256,99.227373 L 56.66256,101.21136 L 56.66256,103.19535 L 54.6846,104.87347 C 53.596722,105.79645 51.384233,107.65646 49.767956,109.00685 C 48.151681,110.35723 46.651257,111.61427 46.433681,111.80024 C 46.059335,112.12023 46.03809,111.9453 46.038113,108.54303 z M 106.11873,107.25329 L 100.98321,104.49557 L 100.97603,101.62773 L 100.96885,98.759894 L 102.83379,99.400647 C 104.89404,100.10851 110.80084,102.21519 111.42379,102.4643 C 111.77803,102.60595 111.81939,103.00991 111.81939,106.32817 C 111.81939,109.1481 111.75184,110.03112 111.53682,110.02245 C 111.38141,110.01617 108.94326,108.77006 106.11873,107.25329 z M 120.12819,105.20812 L 114.98686,103.36531 L 114.98549,100.59616 L 114.98412,97.827015 L 120.29635,97.827015 L 125.60859,97.827015 L 125.60859,102.46109 C 125.60859,105.00984 125.5323,107.08522 125.43906,107.07305 C 125.3458,107.06089 122.95592,106.22167 120.12819,105.20812 z M 87.532949,101.50037 L 83.282862,97.940045 L 85.626851,97.876722 L 87.970837,97.813393 L 89.948801,98.871512 L 91.92676,99.929638 L 91.92676,102.49516 C 91.92676,103.90621 91.894419,105.0607 91.854899,105.0607 C 91.81537,105.0607 89.8705,103.45855 87.532949,101.50037 z M 46.087198,102.00315 L 46.151116,99.344309 L 48.185589,98.597861 C 50.123321,97.886915 50.373235,97.85084 53.441311,97.839213 L 56.66256,97.827015 L 56.66256,98.358249 C 56.66256,98.81775 56.044446,99.220149 52.084997,101.3383 C 49.567336,102.68515 47.173497,103.98396 46.765355,104.22455 L 46.02328,104.66198 L 46.087198,102.00315 z M 106.11155,100.24311 C 103.04459,99.147004 100.96885,98.288477 100.96885,98.116084 C 100.96885,97.889392 102.13952,97.827015 106.39412,97.827015 L 111.81939,97.827015 L 111.81939,99.974514 C 111.81939,101.55273 111.74448,102.11659 111.53682,102.10154 C 111.38141,102.09028 108.94004,101.25399 106.11155,100.24311 z M 145.27515,99.538185 C 140.98582,98.639596 137.32376,97.849473 137.13726,97.782354 C 136.41929,97.523964 139.20284,97.263369 142.33648,97.295598 C 145.91133,97.33237 147.99469,97.734437 150.32662,98.837616 C 151.4783,99.382449 153.79995,101.21579 153.30002,101.18562 C 153.1757,101.17813 149.56452,100.43678 145.27515,99.538185 z M 90.287882,98.716724 C 89.572986,98.347729 88.988074,97.996588 88.988074,97.936417 C 88.988074,97.876246 89.649281,97.827015 90.457422,97.827015 L 91.92676,97.827015 L 91.92676,98.618201 C 91.92676,99.05335 91.850467,99.404491 91.757219,99.398508 C 91.663972,99.392531 91.002766,99.08573 90.287882,98.716724 z M 46.03809,98.392146 C 46.03809,97.840221 46.076391,97.827292 47.676971,97.838792 L 49.315852,97.850569 L 47.84651,98.400173 C 46.027628,99.080523 46.03809,99.080562 46.03809,98.392146 z "
       id="path2236"
       sodipodi:nodetypes="cscccssssssssssssssssssssssssssscccccccccsscccccccccssscccccssscccccssscccccccccccccccccccccscccsscccccsssccssccsscccssccsscccccccsscccsscccccssscccccccscccccccccsscccccsccccssccccccccscccccccccccccccccccccccsscccccccccscccccsccccccccccccsccscccsccccscccscccccccscccccccccsccccsccccccccccssssccccccccssccccccsssccccccccsccccccccscccccccsccccscccsccssssccscccscccccc"
       inkscape:export-filename="/home/mdrago/Desktop/lilug_logo_mini_button.png"
       inkscape:export-xdpi="300.00864"
       inkscape:export-ydpi="300.00864" />
    <flowRoot
       xml:space="preserve"
       id="flowRoot2238"
       style="font-size:56px;font-style:normal;font-variant:normal;font-weight:bold;font-stretch:normal;text-align:center;line-height:100%;writing-mode:lr-tb;text-anchor:middle;font-family:DejaVu Sans"
       transform="matrix(0.1965823,0,0,0.1965823,2.4577301,31.47897)"
       inkscape:export-filename="/home/mdrago/Desktop/lilug_logo_mini_button.png"
       inkscape:export-xdpi="300.00864"
       inkscape:export-ydpi="300.00864"><flowRegion
         id="flowRegion2240"><rect
           id="rect2242"
           width="964.73474"
           height="118.35774"
           x="16"
           y="522.09448"
           style="font-size:56px;font-style:normal;font-variant:normal;font-weight:bold;font-stretch:normal;text-align:center;line-height:100%;writing-mode:lr-tb;text-anchor:middle;font-family:DejaVu Sans" /></flowRegion><flowPara
         id="flowPara2188">Long Island Linux</flowPara><flowPara
         id="flowPara2192">Users Group</flowPara><flowPara
         id="flowPara2194"
         style="font-size:28px" /></flowRoot>  </g>
</svg>
