<?xml version="1.0" encoding="UTF-8" standalone="no"?>
<!-- Created with Inkscape (http://www.inkscape.org/) -->
<svg
   xmlns:dc="http://purl.org/dc/elements/1.1/"
   xmlns:cc="http://creativecommons.org/ns#"
   xmlns:rdf="http://www.w3.org/1999/02/22-rdf-syntax-ns#"
   xmlns:svg="http://www.w3.org/2000/svg"
   xmlns="http://www.w3.org/2000/svg"
   xmlns:sodipodi="http://sodipodi.sourceforge.net/DTD/sodipodi-0.dtd"
   xmlns:inkscape="http://www.inkscape.org/namespaces/inkscape"
   width="375"
   height="170"
   id="svg2"
   sodipodi:version="0.32"
   inkscape:version="0.46"
   version="1.0"
   sodipodi:modified="TRUE"
   sodipodi:docname="lilug_logo_jobs_text2path.svg"
   inkscape:output_extension="org.inkscape.output.svg.inkscape"
   inkscape:export-filename="C:\Documents and Settings\justin.dearing\Desktop\deleteme\lilug_logo_jobs.png"
   inkscape:export-xdpi="90"
   inkscape:export-ydpi="90">
  <defs
     id="defs4">
    <inkscape:perspective
       sodipodi:type="inkscape:persp3d"
       inkscape:vp_x="0 : 372.04724 : 1"
       inkscape:vp_y="0 : 1000 : 0"
       inkscape:vp_z="1052.3622 : 372.04724 : 1"
       inkscape:persp3d-origin="526.18109 : 248.03149 : 1"
       id="perspective2445" />
  </defs>
  <sodipodi:namedview
     id="base"
     pagecolor="#ffffff"
     bordercolor="#666666"
     borderopacity="1.0"
     gridtolerance="10000"
     guidetolerance="10"
     objecttolerance="10"
     inkscape:pageopacity="0.0"
     inkscape:pageshadow="2"
     inkscape:zoom="2"
     inkscape:cx="179.92944"
     inkscape:cy="22.495623"
     inkscape:document-units="px"
     inkscape:current-layer="g3227"
     width="1052.3622px"
     height="744.09448px"
     inkscape:window-width="1680"
     inkscape:window-height="993"
     inkscape:window-x="1676"
     inkscape:window-y="-4"
     showgrid="false" />
  <metadata
     id="metadata7">
    <rdf:RDF>
      <cc:Work
         rdf:about="">
        <dc:format>image/svg+xml</dc:format>
        <dc:type
           rdf:resource="http://purl.org/dc/dcmitype/StillImage" />
      </cc:Work>
    </rdf:RDF>
  </metadata>
  <g
     inkscape:label="Layer 1"
     inkscape:groupmode="layer"
     id="layer1">
    <path
       style="fill:#80625e;fill-opacity:1"
       d="M 70.987802,137.88047 C 70.988048,135.20218 71.318872,126.6998 71.72295,118.98631 C 72.127036,111.27282 72.871759,93.391558 73.377893,79.250157 L 74.298133,53.538514 L 71.473455,50.561262 C 69.355269,48.328648 68.64879,46.915836 68.64879,44.912491 C 68.64879,43.443155 68.999571,42.24098 69.428308,42.24098 C 69.857043,42.24098 70.207829,42.942198 70.207829,43.799262 C 70.207829,44.899356 70.723527,45.354025 71.961748,45.34561 C 75.218034,45.32346 75.908672,44.276229 75.496251,39.986187 C 75.285908,37.798101 75.413094,36.007852 75.778891,36.007852 C 76.703937,36.007852 76.615767,33.08937 75.673133,32.507074 C 75.199054,32.214217 75.371707,31.314794 76.121592,30.17088 C 76.940607,28.921518 77.27479,26.88417 77.139511,23.965179 C 77.020439,21.395819 77.315076,19.242717 77.860323,18.697732 C 78.367551,18.190758 78.782544,17.11789 78.782544,16.313571 C 78.782544,14.537945 82.861489,10.296208 84.568979,10.296208 C 85.278537,10.296208 85.79822,9.6374289 85.79822,8.7379259 C 85.79822,7.8722169 86.317904,7.1796539 86.967499,7.1796539 C 87.617097,7.1796539 88.136777,7.8722169 88.136777,8.7379259 C 88.136777,9.6374289 88.656459,10.296208 89.366018,10.296208 C 91.073508,10.296208 95.152453,14.537945 95.152453,16.313571 C 95.152453,17.11789 95.56468,18.187989 96.068507,18.691575 C 96.619052,19.241847 96.906951,21.507905 96.790055,24.370792 C 96.646023,27.898286 96.927185,29.500677 97.873577,30.545918 C 98.715587,31.475875 98.868337,32.132436 98.321307,32.470352 C 97.382575,33.050239 97.177139,36.008112 98.075657,36.007362 C 98.397207,36.007102 98.535757,37.804378 98.383547,40.0013 C 98.086757,44.285125 98.784496,45.32391 101.97325,45.34561 C 103.21147,45.354025 103.72717,44.899356 103.72717,43.799262 C 103.72717,42.942198 104.07794,42.24098 104.50669,42.24098 C 104.93542,42.24098 105.28621,43.443155 105.28621,44.912491 C 105.28621,46.919784 104.58122,48.32425 102.45077,50.561262 L 99.615327,53.538514 L 100.94534,86.651987 C 101.67684,104.8644 102.47987,124.937 102.72984,131.25778 L 103.18434,142.7501 L 87.085847,142.7501 L 70.987346,142.7501 L 70.987802,137.88047 z M 101.71239,126.9725 C 101.42055,118.72336 100.85052,111.55499 100.44568,111.04282 C 97.906597,107.83065 82.62676,106.11647 76.289818,108.33288 C 72.836837,109.54059 72.831358,109.56799 72.175843,128.92036 L 71.733778,141.97096 L 86.98839,141.97096 L 102.243,141.97096 L 101.71239,126.9725 z M 86.577738,76.912733 C 91.079465,76.912733 95.874967,77.197455 97.234419,77.545446 L 99.706127,78.178158 L 99.353127,68.974896 C 98.609107,49.577221 98.281947,46.915816 96.641518,46.915816 C 95.506683,46.915816 95.152453,47.471865 95.152453,49.253238 C 95.152453,50.538823 94.801672,51.590661 94.372936,51.590661 C 93.9442,51.590661 93.593414,50.538823 93.593414,49.253238 L 93.593414,46.915816 L 86.967499,46.915816 L 80.341583,46.915816 L 80.341583,49.253238 C 80.341583,50.538823 79.990797,51.590661 79.562061,51.590661 C 79.133329,51.590661 78.782544,50.538823 78.782544,49.253238 C 78.782544,47.471865 78.428313,46.915816 77.293483,46.915816 C 75.652742,46.915816 75.326308,49.572833 74.580839,68.995775 L 74.226806,78.219918 L 76.309791,77.566325 C 77.455435,77.20685 82.076014,76.912733 86.577738,76.912733 z M 97.313213,40.665566 C 97.106329,38.513503 96.681676,36.497483 96.369557,36.185505 C 96.057429,35.873537 91.826502,35.618282 86.967499,35.618282 C 82.108495,35.618282 77.877568,35.873537 77.565442,36.185505 C 77.253321,36.497483 76.828668,38.513503 76.621784,40.665566 L 76.245629,44.578392 L 86.967499,44.578392 L 97.689367,44.578392 L 97.313213,40.665566 z M 84.239182,33.344576 C 84.239182,33.165364 84.026262,32.464144 83.766021,31.786304 C 83.097644,30.045392 81.900622,30.254489 81.900622,32.112146 C 81.900622,32.977865 82.420305,33.670429 83.0699,33.670429 C 83.713004,33.670429 84.239182,33.5238 84.239182,33.344576 z M 92.034376,32.112146 C 92.034376,31.255093 91.683594,30.553864 91.254858,30.553864 C 90.826122,30.553864 90.475337,30.700503 90.475337,30.879715 C 90.475337,31.058929 90.262421,31.760157 90.002176,32.437997 C 89.691687,33.246734 89.959676,33.670429 90.781697,33.670429 C 91.514692,33.670429 92.034376,33.023972 92.034376,32.112146 z M 78.392783,32.112146 C 78.127809,31.683625 77.756323,31.333005 77.567259,31.333005 C 77.378193,31.333005 77.223505,31.683625 77.223505,32.112146 C 77.223505,32.540678 77.594991,32.891287 78.04903,32.891287 C 78.503069,32.891287 78.657757,32.540678 78.392783,32.112146 z M 81.121104,31.722576 C 81.121104,31.079788 80.770319,30.553864 80.341583,30.553864 C 79.912847,30.553864 79.562061,31.079788 79.562061,31.722576 C 79.562061,32.365373 79.912847,32.891287 80.341583,32.891287 C 80.770319,32.891287 81.121104,32.365373 81.121104,31.722576 z M 88.136777,30.897457 C 88.136777,30.279957 87.610602,29.774723 86.967499,29.774723 C 85.793364,29.774723 85.365058,31.419483 86.296707,32.35068 C 87.024184,33.077806 88.136777,32.199124 88.136777,30.897457 z M 94.372936,31.722576 C 94.372936,31.079788 94.02215,30.553864 93.593414,30.553864 C 93.164678,30.553864 92.813897,31.079788 92.813897,31.722576 C 92.813897,32.365373 93.164678,32.891287 93.593414,32.891287 C 94.02215,32.891287 94.372936,32.365373 94.372936,31.722576 z M 96.711492,32.066168 C 96.711492,31.61235 96.36071,31.457734 95.931974,31.722576 C 95.503237,31.987427 95.152453,32.358726 95.152453,32.547705 C 95.152453,32.736672 95.503237,32.891287 95.931974,32.891287 C 96.36071,32.891287 96.711492,32.519988 96.711492,32.066168 z M 82.307906,28.995582 C 84.065301,28.995582 84.097206,28.900708 83.028476,26.852954 C 81.50758,23.938812 81.613144,22.558754 83.544714,20.104368 L 85.188799,18.015253 L 82.960073,18.548784 C 78.365819,19.648599 78.003023,20.136162 78.003023,25.210653 C 78.003023,29.204411 78.195122,29.867768 79.23606,29.468512 C 79.914228,29.208409 81.296556,28.995582 82.307906,28.995582 z M 95.931974,25.127294 C 95.931974,20.144578 95.555834,19.645401 90.974924,18.548784 L 88.746198,18.015253 L 90.390283,20.104368 C 92.315097,22.550168 92.426865,23.939962 90.929469,26.808746 C 89.859152,28.859309 89.890379,28.914222 92.298431,29.216255 C 93.653773,29.386253 95.025782,29.581457 95.347333,29.650033 C 95.668885,29.718621 95.931974,27.683381 95.931974,25.127294 z M 90.153535,26.274267 C 92.661094,22.449117 89.248887,18.056044 85.194887,19.890202 C 82.825485,20.962201 82.187673,23.843029 83.781462,26.274267 C 85.462697,28.838919 88.4723,28.838919 90.153535,26.274267 z M 217.92677,141.85686 C 213.34849,141.01235 204.82281,138.33165 201.70517,136.75636 C 198.19161,134.98102 193.39227,130.2581 191.61906,126.83086 C 190.18823,124.06538 189.93406,121.9336 189.62587,110.11426 L 189.27266,96.56735 L 204.769,109.60825 C 213.29199,116.78074 225.41919,126.9089 231.71835,132.11526 C 238.01749,137.32163 243.19156,141.84435 243.21626,142.16574 C 243.27906,142.98281 222.66595,142.73106 217.92677,141.85686 z M 311.94381,141.51795 C 302.71011,139.03598 296.26002,135.21468 292.6042,130.06033 C 290.22048,126.69956 288.12318,121.70909 289.0985,121.71863 C 289.39775,121.72156 298.41218,126.45091 309.13056,132.22831 L 328.61855,142.73264 L 322.38239,142.6901 C 318.95251,142.66669 314.25515,142.13922 311.94381,141.51795 z M 309.42476,131.28291 L 288.67194,119.99873 L 288.18964,115.98639 C 287.92437,113.77959 287.70429,105.19903 287.70056,96.91847 C 287.69511,84.799938 287.89554,81.912032 288.728,82.114804 C 289.29681,82.253347 297.71357,85.171627 307.43191,88.599839 L 325.10162,94.832967 L 325.10617,107.30436 C 325.11071,119.76343 325.76676,124.55508 327.62992,125.73709 C 328.17367,126.08205 330.05503,126.36966 331.8107,126.37622 C 337.15514,126.39618 337.9231,124.8542 338.24783,113.45108 L 338.52285,103.79308 L 334.93488,103.79308 L 331.34688,103.79308 L 331.34688,100.67651 C 331.34688,98.96241 331.6557,97.55996 332.03315,97.55996 C 332.4106,97.55996 342.12667,100.89078 353.62442,104.96179 C 365.12215,109.03279 374.64319,112.36363 374.78227,112.36363 C 374.92134,112.36363 374.93952,118.76231 374.82269,126.58293 L 374.6102,140.80225 L 362.88731,141.01644 L 351.1644,141.23063 L 349.4202,137.64229 L 347.67599,134.05393 L 344.85343,136.53096 C 341.67776,139.31788 336.97109,141.53203 332.90592,142.15141 C 330.50343,142.51745 327.69918,141.21948 309.42476,131.28291 z M 217.39318,118.86124 L 189.57639,95.61211 L 189.52536,81.730052 L 189.47432,67.847993 L 198.24392,72.525828 C 203.06719,75.098637 211.3983,79.59249 216.7575,82.512181 L 226.5015,87.820698 L 226.89126,106.35487 C 227.31661,126.58107 227.26171,126.36428 231.95814,126.36428 C 233.24434,126.36428 234.77445,126.06174 235.35841,125.69194 C 237.05448,124.61788 237.7342,119.07866 237.77058,106.03467 L 237.80452,93.86215 L 256.11988,103.69724 L 274.43521,113.53233 L 274.43858,117.43317 C 274.44291,122.44342 273.42696,125.90927 270.87514,129.58978 C 267.01825,135.15255 257.23469,140.5313 249.0084,141.61157 L 245.20997,142.11038 L 217.39318,118.86124 z M 120.8766,127.81657 C 120.8766,120.46018 121.01821,114.58742 121.19127,114.76596 C 121.63877,115.22762 131.53983,137.61869 132.15978,139.571 C 132.65012,141.1152 132.39557,141.19182 126.77552,141.19182 L 120.8766,141.19182 L 120.8766,127.81657 z M 127.56407,125.98169 L 120.83815,110.77157 L 121.05225,98.19481 L 121.26636,85.61805 L 137.63627,112.791 C 146.63971,127.7361 154.12311,140.24021 154.26602,140.57788 C 154.40893,140.91554 149.97279,141.19182 144.40792,141.19182 L 134.28999,141.19182 L 127.56407,125.98169 z M 149.11631,129.6995 C 145.28105,123.37871 137.34933,110.26053 131.49023,100.54798 L 120.83734,82.888768 L 121.05185,70.245028 L 121.26636,57.601288 L 139.77994,82.098682 L 158.29354,106.59608 L 158.29354,114.15469 L 158.29354,121.71331 L 163.94505,121.72003 L 169.59657,121.72675 L 175.24809,129.10705 C 179.38526,134.50976 180.8996,137.11762 180.8996,138.83957 L 180.8996,141.19182 L 168.49454,141.19182 L 156.08948,141.19182 L 149.11631,129.6995 z M 18.546666,116.79382 L 36.29873,93.138872 L 36.510811,107.42609 C 36.688789,119.41598 36.908136,121.71331 37.874968,121.71331 C 38.50861,121.71331 39.027047,121.87185 39.027047,122.06564 C 39.027047,122.25942 36.635563,126.37912 33.712634,131.22054 L 28.398218,140.0231 L 14.596411,140.23594 L 0.79460337,140.44879 L 18.546666,116.79382 z M 29.895447,139.82832 C 30.068501,139.50692 32.567077,135.29956 35.447835,130.47863 L 40.685581,121.71331 L 48.885749,121.71331 C 53.395842,121.71331 56.968992,122.00305 56.826075,122.35718 C 56.683164,122.71131 54.855362,126.91866 52.764297,131.70686 L 48.962355,140.41268 L 39.271577,140.41268 C 33.941652,140.41268 29.722391,140.14971 29.895447,139.82832 z M 54.094184,131.08323 C 56.311285,125.95202 58.388365,121.74467 58.709917,121.73354 C 59.031469,121.72241 59.294555,125.92067 59.294555,131.06299 L 59.294555,140.41268 L 54.678823,140.41268 L 50.063089,140.41268 L 54.094184,131.08323 z M 0.23399559,116.49943 L 0.44082938,94.144472 L 18.369778,79.122159 L 36.29873,64.099847 L 36.512434,77.420567 L 36.726134,90.741278 L 18.686956,114.79783 C 8.7654094,128.02894 0.50813999,138.85439 0.33747049,138.85439 C 0.16679988,138.85439 0.1202363,128.79467 0.23399559,116.49943 z M 175.92716,128.36063 C 173.51718,125.16023 171.54537,122.35532 171.54537,122.1275 C 171.54537,121.8997 173.65007,121.71331 176.22249,121.71331 L 180.8996,121.71331 L 180.8996,127.94643 C 180.8996,131.37465 180.76671,134.17955 180.60429,134.17955 C 180.44187,134.17955 178.33717,131.56103 175.92716,128.36063 z M 255.92836,102.44322 L 237.80452,92.621423 L 237.80452,78.274242 C 237.80452,70.38329 238.10242,64.043924 238.46653,64.186764 C 238.83064,64.329615 247.07201,67.251384 256.78069,70.679606 L 274.43285,76.912733 L 274.4374,94.638182 C 274.4399,104.38717 274.35426,112.34144 274.24707,112.31433 C 274.13989,112.28722 265.89647,107.84523 255.92836,102.44322 z M 355.51198,104.53817 C 328.41867,94.971939 331.34688,96.43902 331.34688,92.431095 L 331.34688,88.98941 L 353.17343,88.98941 L 374.99999,88.98941 L 374.99999,99.89738 C 374.99999,108.12415 374.76047,110.79619 374.02558,110.76816 C 373.48966,110.74771 365.15853,107.94422 355.51198,104.53817 z M 139.39019,79.869166 L 120.8766,55.247543 L 120.8766,49.523397 L 120.8766,43.799262 L 123.63928,43.799262 C 126.07731,43.799262 128.27589,45.372516 142.34776,57.18668 L 158.29354,70.574097 L 158.29354,87.573169 C 158.29354,96.92264 158.20584,104.5539 158.09866,104.5315 C 157.99147,104.5091 149.57265,93.411058 139.39019,79.869166 z M 306.01249,87.049744 L 288.08354,80.610596 L 288.27189,73.307678 C 288.50622,64.221698 289.61287,58.678055 291.85876,55.339638 C 293.97482,52.194208 300.7391,47.497693 306.01249,45.512528 L 309.91008,44.045292 L 340.66545,50.402729 L 371.42079,56.760157 L 372.39477,59.145987 C 373.4034,61.616575 374.99999,72.611777 374.99999,77.087079 L 374.99999,79.639727 L 356.39851,79.639727 L 337.79705,79.639727 L 337.40597,70.149015 C 337.04964,61.500981 336.85944,60.532483 335.26381,59.241051 C 332.99612,57.405674 329.66118,57.435519 327.34076,59.311946 C 325.52784,60.777983 325.49674,61.044413 325.24917,77.232178 C 325.11094,86.269822 324.76016,93.624795 324.46965,93.576568 C 324.17914,93.528342 315.8734,90.59127 306.01249,87.049744 z M 0.051151998,80.734406 L 0.051234899,68.342183 L 18.369861,58.484039 L 36.68849,48.625893 L 36.68849,55.464157 L 36.68849,62.302411 L 29.867692,68.086458 C 26.116254,71.26768 18.486707,77.678651 12.913143,82.333058 C 7.3395772,86.987454 2.1655163,91.320076 1.4152288,91.961114 C 0.12433169,93.064037 0.051073998,92.461101 0.051151998,80.734406 z M 207.23312,76.289057 L 189.5238,66.783901 L 189.49906,56.899269 L 189.47432,47.014627 L 195.90536,49.223143 C 203.00989,51.662946 223.37892,58.924085 225.5271,59.782687 C 226.74864,60.27092 226.89126,61.663282 226.89126,73.100388 C 226.89126,82.819891 226.65835,85.86345 225.91686,85.833535 C 225.38094,85.811906 216.97326,81.516895 207.23312,76.289057 z M 255.54333,69.239887 L 237.81399,62.888196 L 237.80925,53.343729 L 237.80452,43.799262 L 256.12324,43.799262 L 274.44195,43.799262 L 274.44195,59.771642 C 274.44195,68.556449 274.17886,75.70972 273.8573,75.667789 C 273.53575,75.62587 265.29447,72.733307 255.54333,69.239887 z M 143.14191,56.460293 L 128.48593,44.188822 L 136.56893,43.970568 L 144.65194,43.752315 L 151.47274,47.399351 L 158.29354,51.046396 L 158.29354,59.889076 C 158.29354,64.752549 158.18203,68.731754 158.04573,68.731754 C 157.90944,68.731754 151.20272,63.2096 143.14191,56.460293 z M 0.22041469,58.19323 L 0.44082938,49.028948 L 7.456505,46.456159 C 14.138579,44.005712 15.000383,43.881372 25.580334,43.841311 L 36.68849,43.799262 L 36.68849,45.630271 C 36.68849,47.214041 34.556987,48.600995 20.903217,55.901674 C 12.221319,60.543897 3.9664084,65.020549 2.5589733,65.849796 L 0,67.357513 L 0.22041469,58.19323 z M 207.20839,52.126861 C 196.63227,48.348879 189.47432,45.389788 189.47432,44.795597 C 189.47432,44.014247 193.51123,43.799262 208.18278,43.799262 L 226.89126,43.799262 L 226.89126,51.201091 C 226.89126,56.640764 226.63296,58.58422 225.91686,58.532355 C 225.38094,58.493544 216.96213,55.611076 207.20839,52.126861 z M 342.26014,49.697193 C 327.46877,46.599999 314.84055,43.876664 314.19745,43.645326 C 311.72158,42.75473 321.32037,41.856517 332.12639,41.967613 C 344.45391,42.094351 351.63815,43.480167 359.67958,47.282517 C 363.65103,49.160403 371.65698,55.479399 369.93307,55.37545 C 369.50435,55.349603 357.05154,52.794386 342.26014,49.697193 z M 152.64202,46.86585 C 150.17679,45.594009 148.15978,44.383728 148.15978,44.176338 C 148.15978,43.968939 150.43988,43.799262 153.22666,43.799262 L 158.29354,43.799262 L 158.29354,46.526245 C 158.29354,48.026096 158.03045,49.236376 157.7089,49.215766 C 157.38735,49.195156 155.10725,48.137691 152.64202,46.86585 z M 0.051069498,45.747104 C 0.051069498,43.844779 0.18315038,43.800201 5.7025864,43.839852 L 11.354104,43.880452 L 6.2872257,45.77477 C 0.014994,48.11974 0.051069498,48.1199 0.051069498,45.747104 z"
       id="path2236"
       sodipodi:nodetypes="cscccssssssssssssssssssssssssssscccccccccsscccccccccssscccccssscccccsssccccccsssccssssccsssccsssccssccsssccsssccscccsscccccsssccssccsscccssccsscccccccsscccsscccccssscccccccscccccccccsscccccsccccssccccccccscccccccccccccccccccccccsscccccccccscccccsccccccccccccsccscccsccccscccscccccccscccccccccsccccsccccccccccssssccccccccssccccccsssccccccccsccccccccscccccccsccccscccsccssssccscccscccccc"
       inkscape:export-filename="C:\Documents and Settings\justin.dearing\Desktop\deleteme\lilug_logo_jobs.png"
       inkscape:export-xdpi="90"
       inkscape:export-ydpi="90" />
    <flowRoot
       xml:space="preserve"
       id="flowRoot2238"
       style="font-size:56px;font-style:normal;font-variant:normal;font-weight:bold;font-stretch:normal;text-align:start;line-height:100%;writing-mode:lr-tb;text-anchor:start;fill:#80625e;fill-opacity:1;font-family:DejaVu Sans"
       transform="matrix(0.3892522,0,0,0.389063,-7.9735295,-56.610606)"
       inkscape:export-filename="C:\Documents and Settings\justin.dearing\Desktop\deleteme\lilug_logo_jobs.png"
       inkscape:export-xdpi="90"
       inkscape:export-ydpi="90"><flowRegion
         id="flowRegion2240"><rect
           id="rect2242"
           width="1005"
           height="102"
           x="16"
           y="522.09448"
           style="font-size:56px;font-style:normal;font-variant:normal;font-weight:bold;font-stretch:normal;text-align:start;line-height:100%;writing-mode:lr-tb;text-anchor:start;fill:#80625e;fill-opacity:1;font-family:DejaVu Sans" /></flowRegion><flowPara
         id="flowPara2244">Long Island Linux Users Group</flowPara></flowRoot>    <g
       id="g3227"
       transform="matrix(1.1305469,-0.5970219,0.6527215,1.0340722,-489.22289,442.94738)">
      <rect
         style="fill:none;fill-opacity:1;fill-rule:evenodd;stroke:#0897c6;stroke-width:4.28992748;stroke-linecap:round;stroke-linejoin:round;stroke-miterlimit:4;stroke-dasharray:17.15971075, 17.15971075;stroke-dashoffset:0;stroke-opacity:1"
         id="rect3282"
         width="93.474922"
         height="59.179741"
         x="626.75708"
         y="45.031647"
         transform="matrix(0.9992217,-3.9446806e-2,-3.7729398e-2,0.999288,0,0)"
         ry="9.054615"
         inkscape:export-xdpi="90"
         inkscape:export-ydpi="90"
         inkscape:export-filename="C:\Documents and Settings\justin.dearing\Desktop\deleteme\lilug_logo_jobs.png" />
      <path
         transform="matrix(0.8824365,1.8584949e-4,3.612419e-4,1.7151676,108.88106,-549.14124)"
         style="font-size:40px;font-style:normal;font-variant:normal;font-weight:normal;font-stretch:normal;fill:#0897c6;fill-opacity:1;stroke:none;stroke-width:1px;stroke-linecap:butt;stroke-linejoin:miter;stroke-opacity:1;font-family:Comic Sans MS;-inkscape-font-specification:Comic Sans MS"
         d="M 604.30859,335.81407 L 604.30859,352.61094 C 604.30858,355.18908 604.07746,357.15196 603.61523,358.49962 C 603.15298,359.84727 602.25129,360.91498 600.91016,361.70274 C 599.569,362.4905 597.7526,362.88438 595.46094,362.88438 C 593.4427,362.88438 591.61979,362.66954 589.99219,362.23985 L 589.99219,355.87266 C 591.13802,356.19819 592.20573,356.36095 593.19531,356.36094 C 594.36718,356.36095 595.20052,356.09077 595.69531,355.5504 C 596.1901,355.01004 596.43749,354.03022 596.4375,352.61094 L 596.4375,335.81407 L 604.30859,335.81407 z M 620.20703,362.88438 C 616.45702,362.88438 613.40038,361.64089 611.03711,359.15391 C 608.67383,356.66694 607.49219,353.34012 607.49219,349.17344 C 607.49219,345.18909 608.62174,341.89807 610.88086,339.3004 C 613.13997,336.70277 616.27473,335.40394 620.28516,335.40391 C 623.99608,335.40394 627.02016,336.6279 629.35742,339.07579 C 631.69464,341.52372 632.86325,344.79195 632.86328,348.88047 C 632.86325,353.11225 631.68487,356.50418 629.32812,359.05626 C 626.97133,361.60834 623.93097,362.88438 620.20703,362.88438 L 620.20703,362.88438 z M 620.16797,356.82969 C 621.54816,356.8297 622.541,356.22749 623.14648,355.02305 C 623.75194,353.81863 624.05467,351.61486 624.05469,348.41172 C 624.05467,343.77633 622.81118,341.45862 620.32422,341.4586 C 617.64192,341.45862 616.30077,344.10185 616.30078,349.38829 C 616.30077,354.34923 617.58983,356.8297 620.16797,356.82969 L 620.16797,356.82969 z M 636.33984,362.47422 L 636.33984,335.81407 L 649.875,335.81407 C 652.68748,335.81409 654.73826,336.52373 656.02734,337.94297 C 657.31638,339.36227 657.96091,340.98336 657.96094,342.80626 C 657.96091,344.1344 657.58656,345.33557 656.83789,346.40977 C 656.08917,347.48401 654.97264,348.22294 653.48828,348.62657 C 656.93878,349.45991 658.66404,351.53022 658.66406,354.83751 C 658.66404,356.81668 658.05531,358.58425 656.83789,360.14024 C 655.62042,361.69623 653.01951,362.47422 649.03516,362.47422 L 636.33984,362.47422 z M 643.87891,346.02891 L 647.66797,346.02891 C 648.61847,346.02893 649.28905,345.78804 649.67969,345.30626 C 650.0703,344.8245 650.26561,344.31018 650.26562,343.76329 C 650.26561,342.27893 649.35415,341.53675 647.53125,341.53672 L 643.87891,341.53672 L 643.87891,346.02891 z M 643.87891,356.53672 L 647.86328,356.53672 C 648.85285,356.53673 649.57876,356.29259 650.04102,355.8043 C 650.50324,355.31603 650.73436,354.7659 650.73438,354.15391 C 650.73436,353.54194 650.50975,352.97879 650.06055,352.46446 C 649.61131,351.95015 648.78775,351.69299 647.58984,351.69297 L 643.87891,351.69297 L 643.87891,356.53672 z M 659.28906,354.75938 L 666.88672,353.39219 C 667.52473,355.54064 669.16536,356.61486 671.80859,356.61485 C 673.86587,356.61486 674.89452,356.06798 674.89453,354.97422 C 674.89452,354.40132 674.65689,353.95535 674.18164,353.63633 C 673.70637,353.31733 672.85676,353.03413 671.63281,352.78672 C 666.95833,351.8883 663.95703,350.71642 662.62891,349.2711 C 661.30078,347.8258 660.63672,346.12658 660.63672,344.17344 C 660.63672,341.66044 661.59049,339.5706 663.49805,337.90391 C 665.40559,336.23727 668.14973,335.40394 671.73047,335.40391 C 677.16014,335.40394 680.74737,337.58493 682.49219,341.94688 L 675.71484,343.99766 C 675.0117,342.21383 673.58592,341.3219 671.4375,341.32188 C 669.65364,341.3219 668.76171,341.87529 668.76172,342.98204 C 668.76171,343.47685 668.96353,343.86096 669.36719,344.13438 C 669.77082,344.40784 670.55207,344.66825 671.71094,344.91563 C 674.90103,345.59273 677.16665,346.19169 678.50781,346.71251 C 679.84894,347.23335 680.96873,348.12203 681.86719,349.37852 C 682.7656,350.63504 683.21482,352.11616 683.21484,353.82188 C 683.21482,356.5172 682.12107,358.70144 679.93359,360.37462 C 677.74608,362.04779 674.87498,362.88438 671.32031,362.88438 C 664.82291,362.88438 660.8125,360.17605 659.28906,354.75938 L 659.28906,354.75938 z"
         id="flowRoot3219" />
      <flowRoot
         xml:space="preserve"
         id="flowRoot3274"
         style="font-size:40px;font-style:normal;font-weight:normal;fill:#000000;fill-opacity:1;stroke:none;stroke-width:1px;stroke-linecap:butt;stroke-linejoin:miter;stroke-opacity:1;font-family:Bitstream Vera Sans"><flowRegion
           id="flowRegion3276"><rect
             id="rect3278"
             width="1316.6328"
             height="595.38391"
             x="-113.13708"
             y="109.11259" /></flowRegion><flowPara
           id="flowPara3280"></flowPara></flowRoot>    </g>
  </g>
</svg>
