<?xml version="1.0" encoding="UTF-8" standalone="no"?>
<!-- Created with Inkscape (http://www.inkscape.org/) -->
<svg
   xmlns:dc="http://purl.org/dc/elements/1.1/"
   xmlns:cc="http://web.resource.org/cc/"
   xmlns:rdf="http://www.w3.org/1999/02/22-rdf-syntax-ns#"
   xmlns:svg="http://www.w3.org/2000/svg"
   xmlns="http://www.w3.org/2000/svg"
   xmlns:sodipodi="http://sodipodi.sourceforge.net/DTD/sodipodi-0.dtd"
   xmlns:inkscape="http://www.inkscape.org/namespaces/inkscape"
   width="450"
   height="270"
   id="svg2"
   sodipodi:version="0.32"
   inkscape:version="0.45.1"
   version="1.0"
   sodipodi:docname="lilug_logo_oval_sticker.svg"
   inkscape:output_extension="org.inkscape.output.svg.inkscape"
   sodipodi:docbase="/home/mdrago/Code/lilug/graphics"
   inkscape:export-filename="/home/mdrago/Code/lilug/graphics/lilug_logo_button.png"
   inkscape:export-xdpi="300"
   inkscape:export-ydpi="300">
  <defs
     id="defs4" />
  <sodipodi:namedview
     id="base"
     pagecolor="#ffffff"
     bordercolor="#666666"
     borderopacity="1.0"
     gridtolerance="10000"
     guidetolerance="10"
     objecttolerance="10"
     inkscape:pageopacity="0.0"
     inkscape:pageshadow="2"
     inkscape:zoom="1"
     inkscape:cx="103.5"
     inkscape:cy="204.44292"
     inkscape:document-units="in"
     inkscape:current-layer="layer1"
     width="5in"
     height="3in"
     inkscape:window-width="1024"
     inkscape:window-height="693"
     inkscape:window-x="0"
     inkscape:window-y="25"
     units="in" />
  <metadata
     id="metadata7">
    <rdf:RDF>
      <cc:Work
         rdf:about="">
        <dc:format>image/svg+xml</dc:format>
        <dc:type
           rdf:resource="http://purl.org/dc/dcmitype/StillImage" />
      </cc:Work>
    </rdf:RDF>
  </metadata>
  <g
     inkscape:label="Layer 1"
     inkscape:groupmode="layer"
     id="layer1"
     transform="translate(-7.682899,-57.51967)">
    <path
       style="fill:#000000"
       d="M 98.852325,224.88139 C 98.85261,221.77971 99.235539,211.93332 99.703273,203.00051 C 100.17101,194.06767 101.03303,173.35976 101.61889,156.9829 L 102.68408,127.20685 L 99.414477,123.75895 C 96.962642,121.17341 96.144886,119.53725 96.144886,117.21725 C 96.144886,115.51563 96.552617,114.16442 97.047186,114.12343 C 99.384234,113.92964 98.627679,114.83861 98.627679,115.83113 C 98.627679,117.10514 98.546421,117.72857 99.979679,117.71881 C 103.74888,117.69316 104.5483,116.48039 104.07092,111.5122 C 103.82744,108.97822 103.97466,106.90495 104.39808,106.90495 C 105.46883,106.90495 105.36678,103.52515 104.27566,102.85079 C 103.72691,102.51164 103.92676,101.47004 104.79476,100.14529 C 105.74278,98.698448 106.1296,96.339048 105.97302,92.958634 C 105.83519,89.983109 106.17624,87.489646 106.80737,86.858507 C 107.39449,86.271394 107.87486,85.028928 107.87486,84.097467 C 107.87486,82.041155 112.59629,77.128898 114.57274,77.128898 C 115.39406,77.128898 115.9956,76.365951 115.9956,75.324284 C 115.9956,74.321712 116.59714,73.51967 117.34906,73.51967 C 118.10098,73.51967 118.70251,74.321712 118.70251,75.324284 C 118.70251,76.365951 119.30406,77.128898 120.12538,77.128898 C 122.10183,77.128898 126.82326,82.041155 126.82326,84.097467 C 126.82326,85.028928 127.30042,86.268187 127.88361,86.851364 C 128.52087,87.488628 128.85412,90.112907 128.71881,93.428356 C 128.55209,97.513452 128.87754,99.369144 129.973,100.57964 C 130.94764,101.65657 131.12446,102.41693 130.49126,102.80827 C 129.40466,103.47983 129.16687,106.90526 130.20691,106.90442 C 130.57911,106.90409 130.73949,108.98548 130.5633,111.52969 C 130.21977,116.4907 131.02741,117.6937 134.71843,117.71881 C 136.1517,117.72857 136.07044,117.29891 136.07044,116.02491 C 136.07044,115.03236 135.60453,114.12343 137.65093,114.12343 C 138.14719,114.12343 138.55323,115.51563 138.55323,117.21725 C 138.55323,119.54182 137.73721,121.16833 135.27117,123.75895 L 131.98911,127.20685 L 133.52861,165.55481 C 134.37533,186.64621 135.30485,209.89184 135.5942,217.2118 L 136.12029,230.5208 L 117.48605,230.5208 L 98.851795,230.5208 L 98.852325,224.88139 z M 132.86636,212.44288 C 132.52855,202.88971 132.25628,193.81315 131.78766,193.22 C 128.84863,189.50008 113.29342,188.77438 105.95831,191.34115 C 101.96144,192.73978 102.5364,192.09332 101.77763,214.50487 L 101.55658,227.77771 L 117.27636,227.77771 L 132.99614,227.68084 L 132.86636,212.44288 z M 116.8979,154.27599 C 122.10872,154.27599 127.65958,154.60573 129.23317,155.00874 L 130.35032,155.35392 L 130.0386,145.37404 C 129.17738,122.91001 129.8644,120.31231 128.54688,119.53725 C 127.41467,118.8712 126.82326,120.18117 126.82326,122.24416 C 126.82326,123.73297 125.83593,124.66043 125.33966,124.66043 C 124.84339,124.66043 124.43735,123.73297 124.43735,122.24416 L 123.95294,119.73101 L 117.34906,119.53725 L 110.45453,119.73101 L 110.26076,122.24416 C 110.26076,123.73297 109.66095,124.7573 109.16469,124.7573 C 108.66842,124.7573 107.87486,123.73297 107.87486,122.24416 C 107.87486,120.18117 107.22033,118.77399 106.15124,119.53725 C 105.60842,119.92478 105.42434,122.4205 104.56145,144.91377 L 104.53918,155.20852 L 105.0126,155.0329 C 106.3387,154.61661 111.68709,154.27599 116.8979,154.27599 z M 128.45242,112.39585 C 128.21296,109.9036 127.91518,107.66577 127.94143,107.1107 C 127.96556,106.60034 122.97342,106.4538 117.34906,106.4538 C 111.72469,106.4538 106.88384,106.61584 106.75668,107.1107 C 106.58917,107.76265 107.06646,109.70982 106.82699,112.20209 L 106.87599,116.92721 L 117.34906,116.83034 L 128.69407,116.83034 L 128.45242,112.39585 z M 112.50072,100.94924 L 107.63396,101.16642 L 107.56681,104.85315 L 112.35347,104.59851 L 112.50072,100.94924 z M 120.11444,100.82103 L 114.36669,100.8291 L 114.34538,104.58526 L 120.01304,104.45704 L 120.11444,100.82103 z M 126.62562,101.25898 L 122.03918,100.90112 L 121.93777,104.53969 L 126.60431,104.73737 L 126.62562,101.25898 z M 111.95551,98.784219 C 113.98972,98.784219 114.02665,98.674345 112.78958,96.302874 C 111.02912,92.928075 111.15131,91.329877 113.38713,88.487487 L 115.29018,86.068164 L 112.71041,86.686013 C 107.39249,87.959678 107.74761,88.330559 107.74761,94.207223 C 107.74761,98.832291 108.0873,98.887174 109.36864,99.041271 C 110.19367,99.140486 110.78486,98.784219 111.95551,98.784219 z M 126.95051,94.304449 C 126.95051,88.534053 127.29018,87.955983 121.98771,86.686013 L 119.40792,86.068164 L 121.31098,88.487487 C 123.53898,91.319924 123.66836,92.929424 121.9351,96.251685 C 120.69619,98.626409 120.73234,98.690002 123.51969,99.039791 C 125.08852,99.236651 125.28023,99.271521 126.56442,99.251466 C 126.94495,99.245341 126.95051,97.264586 126.95051,94.304449 z M 119.68058,94.470132 C 121.42052,90.91225 118.41778,89.134457 116.36295,89.595842 C 114.53444,90.006393 113.87578,92.976103 114.72689,94.276368 C 115.61507,95.633262 118.4127,95.986939 119.68058,94.470132 z M 268.93638,229.48637 C 263.6369,228.50834 253.76833,225.40386 250.15962,223.57959 C 246.09259,221.52359 240.53729,216.05409 238.48481,212.08509 C 236.82856,208.88243 236.53438,206.41369 236.17762,192.72594 L 235.76877,177.0376 L 253.70602,192.13997 C 263.57153,200.44627 277.60893,212.1755 284.90031,218.20485 C 292.19165,224.23418 298.18069,229.47187 298.20931,229.84407 C 298.28198,230.79032 274.422,230.49875 268.93638,229.48637 z M 377.76243,229.09391 C 367.0743,226.21959 359.60824,221.79421 355.37655,215.82506 C 352.61739,211.93303 350.18972,206.15365 351.31868,206.16475 C 351.66504,206.16812 362.09938,211.64505 374.50608,218.33574 L 397.06369,230.50059 L 389.84526,230.4513 C 385.87513,230.42422 380.43784,229.81336 377.76243,229.09391 z M 374.84663,217.24089 L 350.82493,204.17293 L 350.26664,199.52633 C 349.9596,196.9707 349.70486,187.03374 349.70052,177.44422 C 349.69425,163.41 349.92622,160.06558 350.8898,160.30038 C 351.54821,160.46085 361.29072,163.84045 372.53986,167.81057 L 392.99279,175.02904 L 392.99807,189.47187 C 393.00334,203.90045 393.76275,209.44956 395.91932,210.8184 C 396.54876,211.2179 398.72645,211.55096 400.75867,211.55858 C 406.94493,211.5817 407.83386,209.79594 408.20972,196.59026 L 408.52808,185.40552 L 404.37495,185.40552 L 400.22178,185.40552 L 400.22178,181.7963 C 400.22178,179.81123 400.57925,178.1871 401.01615,178.1871 C 401.45307,178.1871 412.69955,182.04445 426.00835,186.75898 C 439.31717,191.47353 450.3379,195.3309 450.49889,195.3309 C 450.65987,195.3309 450.68089,202.74107 450.54567,211.79795 L 450.29971,228.26503 L 436.7303,228.51309 L 423.16082,228.76113 L 421.1419,224.60554 L 419.12297,220.44995 L 415.85581,223.31857 C 412.17993,226.54604 406.73189,229.1102 402.02639,229.82745 C 399.24548,230.25138 395.99953,228.74822 374.84663,217.24089 z M 268.3187,202.85565 L 236.12038,175.93132 L 236.06127,159.85483 L 236.00221,143.77833 L 246.15314,149.19562 C 251.73616,152.17512 261.37956,157.37937 267.5829,160.76058 L 278.86173,166.90827 L 279.31289,188.37227 C 279.80522,211.79582 279.74167,211.54473 285.17784,211.54473 C 286.66666,211.54473 288.43779,211.19435 289.11373,210.76612 C 291.07693,209.52228 291.86374,203.10742 291.90584,188.00146 L 291.94516,173.90475 L 313.14542,185.29454 L 334.34568,196.68437 L 334.3496,201.20185 C 334.3546,207.00409 333.17863,211.01781 330.22485,215.28013 C 325.76046,221.72225 314.43583,227.95128 304.9138,229.20231 L 300.51705,229.77994 L 268.3187,202.85565 z M 156.59934,213.22662 C 156.59934,204.70733 156.76326,197.90621 156.96358,198.11299 C 157.48156,198.64762 168.94219,224.57822 169.65978,226.83916 C 170.22736,228.62743 169.93272,228.71617 163.42743,228.71617 L 156.59934,228.71617 L 156.59934,213.22662 z M 164.34018,211.10167 L 156.55483,193.48715 L 156.80266,178.9223 L 157.0505,164.35745 L 175.99889,195.82584 C 186.42053,213.13343 195.08266,227.61415 195.24807,228.00523 C 195.41352,228.39623 190.27861,228.71617 183.83719,228.71617 L 172.12555,228.71617 L 164.34018,211.10167 z M 189.28722,215.4072 C 184.84786,208.08721 175.66676,192.89535 168.88478,181.64746 L 156.5539,161.19672 L 156.80219,146.55428 L 157.0505,131.91185 L 178.48024,160.28173 L 199.91,188.65163 L 199.91,197.40509 L 199.91,206.15855 L 206.45171,206.16634 L 212.99343,206.17414 L 219.53514,214.72109 C 224.32399,220.97783 226.07684,223.99797 226.07684,225.9921 L 226.07684,228.71617 L 211.71781,228.71617 L 197.35877,228.71617 L 189.28722,215.4072 z M 38.150939,200.4614 L 58.699213,173.06713 L 58.944699,189.61284 C 59.150712,203.49806 59.404607,206.15855 60.52373,206.15855 C 61.257179,206.15855 61.857276,206.34217 61.857276,206.56659 C 61.857276,206.79101 59.089099,211.56195 55.705768,217.16867 L 49.554254,227.36273 L 33.578458,227.60922 L 17.602664,227.85569 L 38.150939,200.4614 z M 51.287317,227.13716 C 51.48763,226.76496 54.379768,221.8925 57.714289,216.30948 L 63.777056,206.15855 L 73.268871,206.15855 C 78.48937,206.15855 82.625344,206.49407 82.459917,206.9042 C 82.294493,207.31431 80.178786,212.18679 77.758349,217.73188 L 73.357545,227.81389 L 62.140325,227.81389 C 55.970859,227.81389 51.087007,227.50935 51.287317,227.13716 z M 79.297709,217.00966 C 81.864039,211.06731 84.268287,206.19489 84.640488,206.18198 C 85.012688,206.16911 85.317216,211.03098 85.317216,216.98621 L 85.317216,227.81389 L 79.974444,227.81389 L 74.631663,227.81389 L 79.297709,217.00966 z M 16.953752,200.12048 L 17.193165,174.2317 L 37.946186,156.83469 L 58.699213,139.43769 L 58.946579,154.8641 L 59.193937,170.29055 L 38.313325,198.14989 C 26.82899,213.47255 17.271079,226.00927 17.073526,226.00927 C 16.875972,226.00927 16.822074,214.35932 16.953752,200.12048 z M 220.3212,213.85667 C 217.53159,210.15037 215.24919,206.90206 215.24919,206.63825 C 215.24919,206.37442 217.68541,206.15855 220.66302,206.15855 L 226.07684,206.15855 L 226.07684,213.37699 C 226.07684,217.34714 225.92301,220.59545 225.73501,220.59545 C 225.54703,220.59545 223.1108,217.56297 220.3212,213.85667 z M 312.92374,183.84229 L 291.94516,172.46787 L 291.94516,155.85275 C 291.94516,146.71438 292.28997,139.37292 292.71142,139.53834 C 293.13286,139.70376 302.67239,143.08742 313.91033,147.05755 L 334.34296,154.27599 L 334.34821,174.80342 C 334.35111,186.09353 334.25199,195.30521 334.12792,195.27381 C 334.00384,195.24241 324.46198,190.09823 312.92374,183.84229 z M 428.19323,186.26841 C 396.83231,175.18997 400.22178,176.88897 400.22178,172.24747 L 400.22178,168.26173 L 425.48633,168.26173 L 450.75089,168.26173 L 450.75089,180.894 C 450.75089,190.42125 450.47364,193.5157 449.62299,193.48322 C 449.00264,193.45957 439.35925,190.21287 428.19323,186.26841 z M 178.02909,157.69977 L 156.59934,129.18601 L 156.59934,122.55702 L 156.59934,115.92802 L 159.79719,115.92802 C 162.61924,115.92802 165.16413,117.74997 181.45251,131.43169 L 199.91,146.93536 L 199.91,166.62161 C 199.91,177.44904 199.80848,186.28663 199.68443,186.26067 C 199.56035,186.23472 189.81544,173.38232 178.02909,157.69977 z M 370.89686,166.01544 L 350.14383,158.55841 L 350.36186,150.10107 C 350.63311,139.57878 351.91405,133.15883 354.51371,129.29268 C 356.96309,125.65002 364.79282,120.2111 370.89686,117.91214 L 375.40838,116.21295 L 411.00816,123.57535 L 446.60795,130.93776 L 447.73532,133.70072 C 448.9028,136.56184 450.75089,149.29516 450.75089,154.47791 L 450.75089,157.43407 L 429.21941,157.43407 L 407.68792,157.43407 L 407.23526,146.4431 C 406.82281,136.428 406.60267,135.3064 404.75572,133.81082 C 402.13079,131.68529 398.27057,131.71988 395.58465,133.89292 C 393.48617,135.59071 393.45017,135.89924 393.16357,154.64594 C 393.00359,165.11223 392.59757,173.62986 392.26131,173.57401 C 391.92501,173.51815 382.31103,170.11681 370.89686,166.01544 z M 16.742108,158.70181 L 16.742204,144.35065 L 37.946285,132.93415 L 59.150367,121.51765 L 59.150367,129.43687 L 59.150367,137.35612 L 51.25519,144.05448 C 46.912848,147.7386 38.081534,155.16298 31.630049,160.55315 C 25.178568,165.9433 19.189516,170.96083 18.321047,171.70319 C 16.826815,172.98048 16.742018,172.28221 16.742108,158.70181 z M 256.55828,153.55373 L 236.05948,142.54604 L 236.03084,131.09884 L 236.00221,119.65168 L 243.44623,122.20929 C 251.66985,125.03478 275.24727,133.44374 277.73385,134.43809 C 279.14779,135.00349 279.31289,136.61595 279.31289,149.86101 C 279.31289,161.11695 279.04328,164.64163 278.18499,164.60701 C 277.56468,164.58193 267.83264,159.60797 256.55828,153.55373 z M 312.47809,145.39026 L 291.95609,138.03451 L 291.95063,126.98126 L 291.94516,115.92802 L 313.14929,115.92802 L 334.35349,115.92802 L 334.35349,134.42529 C 334.35349,144.59876 334.04899,152.88281 333.67677,152.83429 C 333.30455,152.78573 323.76514,149.43592 312.47809,145.39026 z M 182.37178,130.59049 L 165.40725,116.37919 L 174.76345,116.12643 L 184.11965,115.87365 L 192.01482,120.09721 L 199.91,124.32079 L 199.91,134.56127 C 199.91,140.19356 199.78093,144.80179 199.62315,144.80179 C 199.46539,144.80179 191.70227,138.4067 182.37178,130.59049 z M 16.938032,132.59736 L 17.193165,121.98441 L 25.313912,119.00491 C 33.048512,116.16712 34.046064,116.02312 46.292514,115.97671 L 59.150367,115.92802 L 59.150367,118.04848 C 59.150367,119.88261 56.683119,121.48882 40.878682,129.94357 C 30.829258,135.31962 21.274075,140.50392 19.644948,141.46426 L 16.682899,143.2103 L 16.938032,132.59736 z M 256.52965,125.57203 C 244.28765,121.19685 236.00221,117.76998 236.00221,117.08186 C 236.00221,116.177 240.67499,115.92802 257.65753,115.92802 L 279.31289,115.92802 L 279.31289,124.49992 C 279.31289,130.79949 279.01387,133.05017 278.18499,132.99009 C 277.56468,132.94514 267.81976,129.60702 256.52965,125.57203 z M 412.85404,122.75828 C 395.73283,119.1715 381.11547,116.01766 380.37105,115.74975 C 377.50522,114.71837 388.61597,113.67818 401.12408,113.80683 C 415.39335,113.95361 423.70923,115.55849 433.0173,119.96191 C 437.61431,122.13665 446.88136,129.45454 444.88586,129.33414 C 444.38963,129.30422 429.97531,126.34509 412.85404,122.75828 z M 193.36828,119.47936 C 190.51474,118.00649 188.18002,116.60488 188.18002,116.36471 C 188.18002,116.12453 190.81927,115.92802 194.04502,115.92802 L 199.91,115.92802 L 199.91,119.0861 C 199.91,120.82303 199.60547,122.22463 199.23326,122.20075 C 198.86106,122.17689 196.22183,120.95227 193.36828,119.47936 z M 16.742013,118.18378 C 16.742013,115.98073 16.894898,115.92912 23.283727,115.97503 L 29.82544,116.02204 L 23.960457,118.21582 C 16.700255,120.93149 16.742013,120.93164 16.742013,118.18378 z "
       id="path2236"
       sodipodi:nodetypes="cscccssssssssssssssssssssssssssscccccccccsscccccccccssscccccssscccccssscccccccccccccccccccccscccsscccccsssccssccsscccssccsscccccccsscccsscccccssscccccccscccccccccsscccccsccccssccccccccscccccccccccccccccccccccsscccccccccscccccsccccccccccccsccscccsccccscccscccccccscccccccccsccccsccccccccccssssccccccccssccccccsssccccccccsccccccccscccccccsccccscccsccssssccscccscccccc"
       inkscape:export-filename="/home/mdrago/Desktop/lilug_logo_oval_sticker.png"
       inkscape:export-xdpi="300.00864"
       inkscape:export-ydpi="300.00864" />
    <flowRoot
       xml:space="preserve"
       id="flowRoot2238"
       style="font-size:56px;font-style:normal;font-variant:normal;font-weight:bold;font-stretch:normal;text-align:center;line-height:100%;writing-mode:lr-tb;text-anchor:middle;font-family:DejaVu Sans"
       transform="matrix(0.4505651,0,0,0.4505651,4.7068517,13.834585)"
       inkscape:export-filename="/home/mdrago/Desktop/lilug_logo_oval_sticker.png"
       inkscape:export-xdpi="300.00864"
       inkscape:export-ydpi="300.00864"><flowRegion
         id="flowRegion2240"><rect
           id="rect2242"
           width="968.50958"
           height="177.49731"
           x="16"
           y="522.09448"
           style="font-size:56px;font-style:normal;font-variant:normal;font-weight:bold;font-stretch:normal;text-align:center;line-height:100%;writing-mode:lr-tb;text-anchor:middle;font-family:DejaVu Sans" /></flowRegion><flowPara
         id="flowPara2188">Long Island Linux</flowPara><flowPara
         id="flowPara2192">Users Group</flowPara><flowPara
         id="flowPara2194"
         style="font-size:28px">www.lilug.org</flowPara></flowRoot>  </g>
</svg>
