<?xml version="1.0" encoding="UTF-8" standalone="no"?>
<!-- Created with Inkscape (http://www.inkscape.org/) -->
<svg
   xmlns:dc="http://purl.org/dc/elements/1.1/"
   xmlns:cc="http://web.resource.org/cc/"
   xmlns:rdf="http://www.w3.org/1999/02/22-rdf-syntax-ns#"
   xmlns:svg="http://www.w3.org/2000/svg"
   xmlns="http://www.w3.org/2000/svg"
   xmlns:sodipodi="http://sodipodi.sourceforge.net/DTD/sodipodi-0.dtd"
   xmlns:inkscape="http://www.inkscape.org/namespaces/inkscape"
   width="900"
   height="744.29999"
   id="svg2"
   sodipodi:version="0.32"
   inkscape:version="0.45.1"
   version="1.0"
   sodipodi:docname="lilug_logo_shirt.svg"
   inkscape:output_extension="org.inkscape.output.svg.inkscape"
   sodipodi:docbase="/home/mdrago/Code/lilug/graphics">
  <defs
     id="defs4" />
  <sodipodi:namedview
     id="base"
     pagecolor="#ffffff"
     bordercolor="#666666"
     borderopacity="1.0"
     gridtolerance="10000"
     guidetolerance="10"
     objecttolerance="10"
     inkscape:pageopacity="0.0"
     inkscape:pageshadow="2"
     inkscape:zoom="1"
     inkscape:cx="589.85106"
     inkscape:cy="410.25085"
     inkscape:document-units="px"
     inkscape:current-layer="layer1"
     width="10in"
     height="8.27in"
     inkscape:window-width="1024"
     inkscape:window-height="693"
     inkscape:window-x="0"
     inkscape:window-y="25"
     units="in" />
  <metadata
     id="metadata7">
    <rdf:RDF>
      <cc:Work
         rdf:about="">
        <dc:format>image/svg+xml</dc:format>
        <dc:type
           rdf:resource="http://purl.org/dc/dcmitype/StillImage" />
      </cc:Work>
    </rdf:RDF>
  </metadata>
  <g
     inkscape:label="Layer 1"
     inkscape:groupmode="layer"
     id="layer1">
    <path
       style="fill:#000000"
       d="M 173.85617,457.14845 C 173.85676,450.76262 174.64515,430.49048 175.60813,412.09928 C 176.57112,393.70807 178.34589,351.07391 179.55207,317.3567 L 181.74512,256.05268 L 175.01355,248.95405 C 169.96563,243.63085 168.282,240.26228 168.282,235.48574 C 168.282,231.98242 169.12145,229.20049 170.13969,229.11607 C 174.95128,228.71714 173.39366,230.58853 173.39366,232.632 C 173.39366,235.25496 173.22637,236.53849 176.17721,236.51841 C 183.93737,236.46559 185.58325,233.96871 184.6004,223.73998 C 184.09912,218.52296 184.40222,214.25448 185.27397,214.25448 C 187.47847,214.25448 187.26835,207.29597 185.02193,205.90761 C 183.89214,205.20935 184.30359,203.06486 186.09067,200.33745 C 188.04249,197.3586 188.83889,192.50097 188.5165,185.54126 C 188.23274,179.41515 188.9349,174.28153 190.23429,172.98212 C 191.44308,171.77335 192.43207,169.21532 192.43207,167.2976 C 192.43207,163.06399 202.15273,152.95046 206.2219,152.95046 C 207.91287,152.95046 209.15135,151.37972 209.15135,149.23506 C 209.15135,147.17096 210.38982,145.51967 211.93789,145.51967 C 213.48597,145.51967 214.72443,147.17096 214.72443,149.23506 C 214.72443,151.37972 215.96291,152.95046 217.65388,152.95046 C 221.72305,152.95046 231.44371,163.06399 231.44371,167.2976 C 231.44371,169.21532 232.4261,171.76675 233.62679,172.96743 C 234.93881,174.27945 235.62491,179.68238 235.34633,186.50835 C 235.00309,194.91893 235.67313,198.73948 237.92851,201.23166 C 239.93513,203.44894 240.29916,205.01436 238.99552,205.82005 C 236.75839,207.20268 236.26881,214.2551 238.41009,214.25333 C 239.17639,214.25269 239.50657,218.53791 239.14384,223.77603 C 238.43656,233.98992 240.09936,236.46669 247.69857,236.51841 C 250.64941,236.53849 250.48212,235.65389 250.48212,233.03093 C 250.48212,230.98746 249.52289,229.11607 253.73609,229.11607 C 254.75782,229.11607 255.59378,231.98242 255.59378,235.48574 C 255.59378,240.27169 253.91372,243.62036 248.83656,248.95405 L 242.07933,256.05268 L 245.24892,335.00483 C 246.99218,378.42851 248.90591,426.28745 249.50163,441.35802 L 250.58476,468.75905 L 212.21993,468.75905 L 173.85508,468.75905 L 173.85617,457.14845 z M 243.88545,431.53961 C 243.18995,411.87124 242.62939,393.18406 241.66458,391.96288 C 235.61361,384.30413 203.588,382.81008 188.48623,388.09464 C 180.25733,390.97418 181.44107,389.64327 179.87889,435.78493 L 179.42379,463.11151 L 211.78821,463.11151 L 244.15264,462.91204 L 243.88545,431.53961 z M 211.00904,311.78361 C 221.73725,311.78361 233.16556,312.46247 236.40531,313.29218 L 238.70534,314.0029 L 238.06355,293.4559 C 236.29046,247.20621 237.70492,241.85798 234.99235,240.26225 C 232.66132,238.89097 231.44371,241.58801 231.44371,245.83534 C 231.44371,248.90054 229.41095,250.81004 228.38922,250.81004 C 227.36749,250.81004 226.53152,248.90054 226.53152,245.83534 L 225.53419,240.66118 L 211.93789,240.26225 L 197.74319,240.66118 L 197.34426,245.83534 C 197.34426,248.90054 196.10935,251.00951 195.08762,251.00951 C 194.06589,251.00951 192.43207,248.90054 192.43207,245.83534 C 192.43207,241.58801 191.08452,238.69085 188.88344,240.26225 C 187.76586,241.06011 187.38686,246.19841 185.61031,292.50836 L 185.56447,313.70353 L 186.53917,313.34197 C 189.26939,312.48488 200.28084,311.78361 211.00904,311.78361 z M 234.79789,225.55929 C 234.30486,220.42816 233.69179,215.82083 233.74583,214.67806 C 233.79552,213.62729 223.51753,213.32563 211.93789,213.32563 C 200.35824,213.32563 190.39174,213.65922 190.12994,214.67806 C 189.78506,216.0203 190.76772,220.02923 190.27469,225.16036 L 190.37558,234.88862 L 211.93789,234.68916 L 235.29539,234.68916 L 234.79789,225.55929 z M 201.95596,201.99261 L 191.9361,202.43975 L 191.79785,210.03011 L 201.65281,209.50586 L 201.95596,201.99261 z M 217.63136,201.72867 L 205.79769,201.74527 L 205.75381,209.47859 L 217.42258,209.21463 L 217.63136,201.72867 z M 231.0368,202.63032 L 221.59408,201.89355 L 221.3853,209.38476 L 230.99292,209.79175 L 231.0368,202.63032 z M 200.83347,197.5352 C 205.02157,197.5352 205.09761,197.30899 202.55068,192.42654 C 198.92619,185.47838 199.17776,182.18793 203.78094,176.33594 L 207.69901,171.35491 L 202.38767,172.627 C 191.43896,175.24927 192.17009,176.01284 192.17009,188.11191 C 192.17009,197.63418 192.86946,197.74715 195.50752,198.06441 C 197.20613,198.26869 198.42329,197.5352 200.83347,197.5352 z M 231.70568,188.31208 C 231.70568,176.43182 232.40502,175.24165 221.48811,172.627 L 216.17676,171.35491 L 220.09484,176.33594 C 224.68192,182.16746 224.94828,185.48113 221.37979,192.32113 C 218.82908,197.21027 218.9035,197.34121 224.6422,198.06135 C 227.87216,198.46668 228.26686,198.53848 230.9108,198.49721 C 231.69425,198.48458 231.70568,194.40653 231.70568,188.31208 z M 216.73811,188.6532 C 220.32035,181.32813 214.13821,177.66795 209.90765,178.61786 C 206.14306,179.46314 204.78699,185.57725 206.53927,188.25427 C 208.3679,191.0479 214.12776,191.77608 216.73811,188.6532 z M 524.03109,466.62932 C 513.12042,464.61574 492.80262,458.22418 485.37288,454.46825 C 476.99957,450.23532 465.56211,438.97452 461.33633,430.80297 C 457.92648,424.20924 457.32075,419.12647 456.5863,390.94571 L 455.74454,358.64595 L 492.67436,389.73925 C 512.98576,406.84056 541.88649,430.98906 556.89821,443.40253 C 571.90991,455.81601 584.24038,466.59949 584.29924,467.36579 C 584.4489,469.31393 535.32516,468.71365 524.03109,466.62932 z M 748.08602,465.82126 C 726.08092,459.90353 710.70951,450.79241 701.99719,438.50296 C 696.3165,430.4899 691.31835,418.59115 693.64264,418.61393 C 694.35579,418.62091 715.83837,429.89706 741.38172,443.67204 L 787.82415,468.71744 L 772.96258,468.61599 C 764.7887,468.56019 753.59425,467.30257 748.08602,465.82126 z M 742.08283,441.41794 L 692.6261,414.51318 L 691.47671,404.94659 C 690.84455,399.68495 690.32006,379.22639 690.31117,359.48312 C 690.29819,330.58901 690.77584,323.70339 692.75969,324.18686 C 694.11526,324.5172 714.17351,331.47521 737.33359,339.64907 L 779.44282,354.51066 L 779.45367,384.24608 C 779.4645,413.95215 781.02797,425.37684 785.46809,428.19508 C 786.76393,429.01758 791.24745,429.70332 795.43145,429.71897 C 808.16794,429.76658 809.9981,426.09001 810.77198,398.90167 L 811.42741,375.87417 L 802.87676,375.87417 L 794.3261,375.87417 L 794.3261,368.44338 C 794.3261,364.35645 795.06206,361.0126 795.9616,361.0126 C 796.86112,361.0126 820.01577,368.95425 847.4164,378.66073 C 874.81704,388.36719 897.50691,396.30885 897.83835,396.30885 C 898.16978,396.30885 898.2131,411.56519 897.93468,430.21183 L 897.42828,464.11482 L 869.49109,464.62552 L 841.55385,465.1362 L 837.39719,456.58053 L 833.24051,448.02487 L 826.51398,453.93084 C 818.94596,460.57564 807.72933,465.85483 798.04149,467.3316 C 792.31605,468.20437 785.63315,465.10961 742.08283,441.41794 z M 522.75945,411.80107 L 456.46838,356.36835 L 456.34675,323.26949 L 456.22513,290.17064 L 477.12423,301.32395 C 488.61873,307.45828 508.47288,318.17294 521.24455,325.13432 L 544.46576,337.79138 L 545.39462,381.98223 C 546.40827,430.20739 546.27745,429.69051 557.46965,429.69051 C 560.53485,429.69051 564.18133,428.96914 565.57295,428.08745 C 569.6149,425.52659 571.23478,412.31945 571.32148,381.21877 L 571.40239,352.19594 L 615.05025,375.64568 L 658.69811,399.0954 L 658.70615,408.39615 C 658.71646,420.34202 656.29533,428.60563 650.21398,437.38102 C 641.02253,450.64427 617.70702,463.4688 598.10268,466.04448 L 589.05051,467.23377 L 522.75945,411.80107 z M 292.74774,433.15318 C 292.74774,415.61343 293.08521,401.61103 293.49765,402.03675 C 294.56408,403.13749 318.15963,456.52428 319.63703,461.17916 C 320.80558,464.86096 320.19897,465.04366 306.80566,465.04366 L 292.74774,465.04366 L 292.74774,433.15318 z M 308.68485,428.77828 L 292.6561,392.51293 L 293.16633,362.52627 L 293.67659,332.53963 L 332.68823,397.32783 C 354.14464,432.96134 371.97854,462.77474 372.31912,463.57985 C 372.6597,464.38494 362.08779,465.04366 348.82598,465.04366 L 324.71362,465.04366 L 308.68485,428.77828 z M 360.04668,437.64262 C 350.90677,422.57205 332.00442,391.29447 318.04142,368.1369 L 292.65419,326.03222 L 293.16538,295.88588 L 293.67659,265.73951 L 337.7969,324.14843 L 381.91722,382.55733 L 381.91722,400.57929 L 381.91722,418.60122 L 395.38553,418.61725 L 408.85384,418.63328 L 422.32214,436.23005 C 432.18158,449.11169 435.79046,455.32962 435.79046,459.43523 L 435.79046,465.04366 L 406.22755,465.04366 L 376.66468,465.04366 L 360.04668,437.64262 z M 48.882044,406.87174 L 91.18755,350.47144 L 91.69296,384.53632 C 92.11711,413.12374 92.63984,418.60122 94.94393,418.60122 C 96.45398,418.60122 97.68948,418.97924 97.68948,419.44129 C 97.68948,419.90332 91.99026,429.7259 85.02454,441.26923 L 72.359591,462.25712 L 39.468066,462.76459 L 6.576543,463.27205 L 48.882044,406.87174 z M 75.927682,461.79269 C 76.340093,461.02639 82.294525,450.99482 89.159751,439.50032 L 101.64199,418.60122 L 121.18407,418.60122 C 131.93221,418.60122 140.4475,419.29204 140.10691,420.1364 C 139.76633,420.98074 135.41044,431.01232 130.42716,442.42877 L 121.36663,463.18597 L 98.27223,463.18597 C 85.570321,463.18597 75.51527,462.55899 75.927682,461.79269 z M 133.59645,440.94184 C 138.8801,428.70756 143.83005,418.676 144.59635,418.64946 C 145.36265,418.62292 145.98962,428.63279 145.98962,440.89359 L 145.98962,463.18597 L 134.98973,463.18597 L 123.98983,463.18597 L 133.59645,440.94184 z M 5.240541,406.16982 L 5.733453,352.86908 L 48.460498,317.05153 L 91.18755,281.23397 L 91.69683,312.99443 L 92.2061,344.75488 L 49.216376,402.11273 C 25.572022,433.65954 5.893864,459.47057 5.487136,459.47057 C 5.080405,459.47057 4.969438,435.48524 5.240541,406.16982 z M 423.9405,434.45037 C 418.19716,426.81968 413.49809,420.13197 413.49809,419.58879 C 413.49809,419.04562 418.51387,418.60122 424.64427,418.60122 L 435.79046,418.60122 L 435.79046,433.4628 C 435.79046,441.63668 435.47375,448.32438 435.08669,448.32438 C 434.69961,448.32438 429.68384,442.08107 423.9405,434.45037 z M 614.59385,372.65573 L 571.40239,349.23769 L 571.40239,315.02984 C 571.40239,296.21551 572.11232,281.10064 572.98001,281.44121 C 573.84773,281.78179 593.48799,288.74816 616.62506,296.92203 L 658.69247,311.78361 L 658.70333,354.04623 C 658.70929,377.29067 658.50518,396.25596 658.24974,396.19132 C 657.99431,396.12668 638.34916,385.53567 614.59385,372.65573 z M 851.91473,377.65069 C 787.34779,354.84201 794.3261,358.33995 794.3261,348.78391 L 794.3261,340.57792 L 846.34163,340.57792 L 898.3572,340.57792 L 898.3572,366.58569 C 898.3572,386.20071 897.7864,392.57166 896.03503,392.5048 C 894.75786,392.45606 874.90373,385.77169 851.91473,377.65069 z M 336.86805,318.8326 L 292.74774,260.12749 L 292.74774,246.47947 L 292.74774,232.83146 L 299.33159,232.83146 C 305.14172,232.83146 310.38122,236.58257 343.91633,264.75097 L 381.91722,296.67047 L 381.91722,337.20118 C 381.91722,359.49305 381.70823,377.68818 381.4528,377.63479 C 381.19736,377.58138 361.13423,351.12041 336.86805,318.8326 z M 733.95093,335.95318 L 691.22388,320.60039 L 691.67274,303.18812 C 692.23118,281.52449 694.86848,268.30683 700.22071,260.34708 C 705.26356,252.84747 721.38373,241.6496 733.95093,236.91641 L 743.23941,233.41808 L 816.53348,248.57606 L 889.82754,263.73402 L 892.14864,269.42253 C 894.55229,275.31312 898.3572,301.52887 898.3572,312.1993 L 898.3572,318.28555 L 854.02743,318.28555 L 809.69769,318.28555 L 808.76572,295.65695 C 807.91653,275.03751 807.46325,272.72832 803.66068,269.64918 C 798.25646,265.27311 790.30885,265.34427 784.77898,269.81822 C 780.45857,273.31368 780.38447,273.94892 779.79444,312.54527 C 779.46504,334.09363 778.62907,351.63003 777.93675,351.51504 C 777.24442,351.40005 757.4508,344.39722 733.95093,335.95318 z M 4.804801,320.8956 L 4.804998,291.34893 L 48.460696,267.84425 L 92.1164,244.33957 L 92.1164,260.64396 L 92.1164,276.94836 L 75.861539,290.73921 C 66.921369,298.32417 48.739154,313.60978 35.456615,324.70724 C 22.174077,335.80468 9.843609,346.13491 8.055575,347.66333 C 4.979198,350.29302 4.804615,348.85545 4.804801,320.8956 z M 498.54669,310.29659 L 456.34303,287.63354 L 456.28408,264.06569 L 456.22513,240.49784 L 471.55113,245.76357 C 488.48217,251.58077 537.02424,268.89344 542.14365,270.94061 C 545.05473,272.1047 545.39462,275.42448 545.39462,302.69387 C 545.39462,325.86801 544.83957,333.12473 543.0725,333.0534 C 541.79533,333.00182 521.75872,322.76126 498.54669,310.29659 z M 613.67628,293.48931 L 571.42493,278.34505 L 571.41366,255.58826 L 571.40239,232.83146 L 615.05828,232.83146 L 658.71417,232.83146 L 658.71417,270.91426 C 658.71417,291.8598 658.08719,308.91527 657.3209,308.81532 C 656.5546,308.71536 636.91451,301.81866 613.67628,293.48931 z M 345.80893,263.01904 L 310.88176,233.76031 L 330.14464,233.23992 L 349.40751,232.71953 L 365.66237,241.41514 L 381.91722,250.11075 L 381.91722,271.19426 C 381.91722,282.7902 381.65148,292.27778 381.32666,292.27778 C 381.00186,292.27778 365.01888,279.11135 345.80893,263.01904 z M 5.208176,267.15088 L 5.733453,245.30056 L 22.452731,239.16628 C 38.376996,233.32369 40.430785,233.02724 65.644202,232.93173 L 92.1164,232.83146 L 92.1164,237.19712 C 92.1164,240.97329 87.036742,244.2802 54.498016,261.68714 C 33.807909,272.75555 14.135372,283.42919 10.781269,285.40635 L 4.682899,289.00119 L 5.208176,267.15088 z M 498.48775,252.68689 C 473.28346,243.67909 456.22513,236.62375 456.22513,235.20702 C 456.22513,233.34406 465.84561,232.83146 500.80987,232.83146 L 545.39462,232.83146 L 545.39462,250.47958 C 545.39462,263.44936 544.77905,268.08312 543.0725,267.95945 C 541.79533,267.86692 521.73219,260.99427 498.48775,252.68689 z M 820.33386,246.89385 C 785.08405,239.50924 754.98935,233.01601 753.45675,232.46445 C 747.55642,230.341 770.43161,228.1994 796.18379,228.46428 C 825.56187,228.76646 842.68288,232.07065 861.84666,241.13657 C 871.31113,245.61398 890.39042,260.68032 886.2821,260.43247 C 885.2604,260.37084 855.58368,254.27846 820.33386,246.89385 z M 368.44892,240.14311 C 362.57395,237.11068 357.76715,234.22502 357.76715,233.73052 C 357.76715,233.23604 363.20092,232.83146 369.84219,232.83146 L 381.91722,232.83146 L 381.91722,239.3334 C 381.91722,242.90947 381.29025,245.79513 380.52395,245.74599 C 379.75765,245.69684 374.32388,243.17555 368.44892,240.14311 z M 4.804604,237.4757 C 4.804604,232.94 5.11937,232.83372 18.272912,232.92825 L 31.74122,233.02505 L 19.666185,237.54167 C 4.718632,243.13274 4.804604,243.13312 4.804604,237.4757 z "
       id="path2236"
       sodipodi:nodetypes="cscccssssssssssssssssssssssssssscccccccccsscccccccccssscccccssscccccssscccccccccccccccccccccscccsscccccsssccssccsscccssccsscccccccsscccsscccccssscccccccscccccccccsscccccsccccssccccccccscccccccccccccccccccccccsscccccccccscccccsccccccccccccsccscccsccccscccscccccccscccccccccsccccsccccccccccssssccccccccssccccccsssccccccccsccccccccscccccccsccccscccsccssssccscccscccccc"
       inkscape:export-filename="/home/mdrago/Desktop/lilug_logo.png"
       inkscape:export-xdpi="300.00864"
       inkscape:export-ydpi="300.00864" />
    <flowRoot
       xml:space="preserve"
       id="flowRoot2238"
       style="font-size:56px;font-style:normal;font-variant:normal;font-weight:bold;font-stretch:normal;text-align:start;line-height:100%;writing-mode:lr-tb;text-anchor:start;font-family:DejaVu Sans"
       transform="matrix(0.9276392,0,0,0.9276392,-11.803138,-4.0589148)"
       inkscape:export-filename="/home/mdrago/Desktop/lilug_logo.png"
       inkscape:export-xdpi="300.00864"
       inkscape:export-ydpi="300.00864"><flowRegion
         id="flowRegion2240"><rect
           id="rect2242"
           width="1005"
           height="102"
           x="16"
           y="522.09448"
           style="font-size:56px;font-style:normal;font-variant:normal;font-weight:bold;font-stretch:normal;text-align:start;line-height:100%;writing-mode:lr-tb;text-anchor:start;font-family:DejaVu Sans" /></flowRegion><flowPara
         id="flowPara2244">Long Island Linux Users Group</flowPara></flowRoot>  </g>
</svg>
