<?xml version="1.0" encoding="UTF-8" standalone="no"?>
<!-- Created with Inkscape (http://www.inkscape.org/) -->
<svg
   xmlns:dc="http://purl.org/dc/elements/1.1/"
   xmlns:cc="http://web.resource.org/cc/"
   xmlns:rdf="http://www.w3.org/1999/02/22-rdf-syntax-ns#"
   xmlns:svg="http://www.w3.org/2000/svg"
   xmlns="http://www.w3.org/2000/svg"
   xmlns:sodipodi="http://sodipodi.sourceforge.net/DTD/sodipodi-0.dtd"
   xmlns:inkscape="http://www.inkscape.org/namespaces/inkscape"
   width="1052.3622"
   height="744.09448"
   id="svg2"
   sodipodi:version="0.32"
   inkscape:version="0.45"
   version="1.0"
   sodipodi:modified="TRUE">
  <defs
     id="defs4" />
  <sodipodi:namedview
     id="base"
     pagecolor="#ffffff"
     bordercolor="#666666"
     borderopacity="1.0"
     gridtolerance="10000"
     guidetolerance="10"
     objecttolerance="10"
     inkscape:pageopacity="0.0"
     inkscape:pageshadow="2"
     inkscape:zoom="0.70710678"
     inkscape:cx="431.89077"
     inkscape:cy="294.89711"
     inkscape:document-units="px"
     inkscape:current-layer="layer1"
     width="1052.3622px"
     height="744.09448px"
     inkscape:window-width="1024"
     inkscape:window-height="693"
     inkscape:window-x="0"
     inkscape:window-y="25" />
  <metadata
     id="metadata7">
    <rdf:RDF>
      <cc:Work
         rdf:about="">
        <dc:format>image/svg+xml</dc:format>
        <dc:type
           rdf:resource="http://purl.org/dc/dcmitype/StillImage" />
      </cc:Work>
    </rdf:RDF>
  </metadata>
  <g
     inkscape:label="Layer 1"
     inkscape:groupmode="layer"
     id="layer1">
    <path
       style="fill:#000000"
       d="M 203.86856,495.85471 C 203.86922,488.67572 204.75554,465.88566 205.83812,445.21015 C 206.92072,424.53464 208.91593,376.60505 210.27193,338.69995 L 212.73737,269.78158 L 205.16969,261.80125 C 199.49479,255.81688 197.60204,252.02991 197.60204,246.66009 C 197.60204,242.72164 198.54183,239.49927 199.69047,239.49927 C 200.83911,239.49927 201.77891,241.37886 201.77891,243.67614 C 201.77891,246.62489 203.16053,247.8436 206.47789,247.82103 C 215.20191,247.76165 217.05222,244.95464 215.94729,233.45544 C 215.38375,227.59043 215.7245,222.79178 216.70452,222.79178 C 219.18284,222.79178 218.94662,214.96898 216.42118,213.40817 C 215.15106,212.62319 215.61362,210.21234 217.62266,207.14616 C 219.81691,203.79732 220.71223,198.33635 220.3498,190.51219 C 220.03079,183.62518 220.82016,177.85394 222.28095,176.39313 C 223.63988,175.03422 224.7517,172.15847 224.7517,170.00256 C 224.7517,165.2431 235.67973,153.87341 240.25432,153.87341 C 242.15532,153.87341 243.54762,152.10758 243.54762,149.69654 C 243.54762,147.37606 244.93992,145.51967 246.68027,145.51967 C 248.42063,145.51967 249.81292,147.37606 249.81292,149.69654 C 249.81292,152.10758 251.20522,153.87341 253.10622,153.87341 C 257.68081,153.87341 268.60884,165.2431 268.60884,170.00256 C 268.60884,172.15847 269.71325,175.0268 271.06307,176.37662 C 272.53805,177.8516 273.30937,183.92561 272.99619,191.5994 C 272.61031,201.05463 273.36358,205.34972 275.89909,208.15144 C 278.15494,210.64412 278.56419,212.40398 277.09863,213.30974 C 274.58363,214.8641 274.03324,222.79248 276.44048,222.79048 C 277.30196,222.78977 277.67315,227.60724 277.26537,233.49597 C 276.47024,244.97848 278.33957,247.76288 286.88265,247.82103 C 290.20001,247.8436 291.58163,246.62489 291.58163,243.67614 C 291.58163,241.37886 292.52143,239.49927 293.67007,239.49927 C 294.81871,239.49927 295.7585,242.72164 295.7585,246.66009 C 295.7585,252.04049 293.86976,255.80509 288.16199,261.80125 L 280.56547,269.78158 L 284.12874,358.54008 C 286.08853,407.35726 288.23995,461.16058 288.90967,478.10301 L 290.12733,508.90743 L 246.99734,508.90743 L 203.86734,508.90743 L 203.86856,495.85471 z M 286.18378,466.61662 C 285.40189,444.50531 283.87474,425.29099 282.79009,423.91814 C 275.98756,415.30812 235.05086,410.71336 218.07336,416.65429 C 208.82237,419.89149 208.80769,419.96496 207.05148,471.83771 L 205.86713,506.819 L 246.73624,506.819 L 287.60536,506.819 L 286.18378,466.61662 z M 245.63605,332.43464 C 257.69677,332.43464 270.54455,333.19782 274.1867,334.13059 L 280.80875,335.82654 L 279.863,311.1578 C 277.86968,259.1636 276.99318,252.02988 272.59824,252.02988 C 269.55787,252.02988 268.60884,253.52031 268.60884,258.29518 C 268.60884,261.7411 267.66905,264.56049 266.52041,264.56049 C 265.37177,264.56049 264.43197,261.7411 264.43197,258.29518 L 264.43197,252.02988 L 246.68027,252.02988 L 228.92857,252.02988 L 228.92857,258.29518 C 228.92857,261.7411 227.98877,264.56049 226.84013,264.56049 C 225.6915,264.56049 224.7517,261.7411 224.7517,258.29518 C 224.7517,253.52031 223.80267,252.02988 220.76231,252.02988 C 216.36655,252.02988 215.49199,259.15183 213.49478,311.21377 L 212.54628,335.93848 L 218.12687,334.18656 C 221.1962,333.22301 233.57534,332.43464 245.63605,332.43464 z M 274.3978,235.27648 C 273.84353,229.50803 272.70583,224.1042 271.86962,223.26797 C 271.03339,222.43175 259.69818,221.74756 246.68027,221.74756 C 233.66236,221.74756 222.32715,222.43175 221.49092,223.26797 C 220.65471,224.1042 219.51701,229.50803 218.96274,235.27648 L 217.95497,245.76457 L 246.68027,245.76457 L 275.40557,245.76457 L 274.3978,235.27648 z M 239.37075,215.65306 C 239.37075,215.17269 238.80031,213.2931 238.10309,211.47619 C 236.31242,206.80979 233.10544,207.37026 233.10544,212.3496 C 233.10544,214.67009 234.49774,216.52648 236.23809,216.52648 C 237.96105,216.52648 239.37075,216.13344 239.37075,215.65306 z M 260.2551,212.3496 C 260.2551,210.05233 259.31531,208.17273 258.16667,208.17273 C 257.01803,208.17273 256.07823,208.56577 256.07823,209.04614 C 256.07823,209.52652 255.5078,211.40611 254.81057,213.22302 C 253.97873,215.39078 254.69671,216.52648 256.89901,216.52648 C 258.8628,216.52648 260.2551,214.79368 260.2551,212.3496 z M 223.70748,212.3496 C 222.99758,211.20097 222.00232,210.26117 221.49579,210.26117 C 220.98926,210.26117 220.57483,211.20097 220.57483,212.3496 C 220.57483,213.49824 221.57009,214.43804 222.78652,214.43804 C 224.00295,214.43804 224.41738,213.49824 223.70748,212.3496 z M 231.01701,211.30539 C 231.01701,209.58243 230.07721,208.17273 228.92857,208.17273 C 227.77993,208.17273 226.84013,209.58243 226.84013,211.30539 C 226.84013,213.02835 227.77993,214.43804 228.92857,214.43804 C 230.07721,214.43804 231.01701,213.02835 231.01701,211.30539 z M 249.81292,209.0937 C 249.81292,207.43853 248.40323,206.0843 246.68027,206.0843 C 243.53461,206.0843 242.38712,210.49297 244.88313,212.98897 C 246.83214,214.93799 249.81292,212.58273 249.81292,209.0937 z M 266.52041,211.30539 C 266.52041,209.58243 265.58061,208.17273 264.43197,208.17273 C 263.28333,208.17273 262.34354,209.58243 262.34354,211.30539 C 262.34354,213.02835 263.28333,214.43804 264.43197,214.43804 C 265.58061,214.43804 266.52041,213.02835 266.52041,211.30539 z M 272.78571,212.22635 C 272.78571,211.00992 271.84592,210.59549 270.69728,211.30539 C 269.54864,212.01529 268.60884,213.01054 268.60884,213.51708 C 268.60884,214.02361 269.54864,214.43804 270.69728,214.43804 C 271.84592,214.43804 272.78571,213.44278 272.78571,212.22635 z M 234.19661,203.99586 C 238.9049,203.99586 238.99038,203.74155 236.12711,198.25267 C 232.05243,190.44151 232.33525,186.74236 237.51018,180.16352 L 241.9149,174.56381 L 235.94385,175.9939 C 223.63524,178.94187 222.66326,180.24876 222.66326,193.85061 C 222.66326,204.55561 223.17792,206.33368 225.96673,205.26352 C 227.78363,204.56631 231.48707,203.99586 234.19661,203.99586 z M 270.69728,193.62717 C 270.69728,180.27131 269.68955,178.93331 257.41669,175.9939 L 251.44564,174.56381 L 255.85036,180.16352 C 261.00719,186.71935 261.30663,190.4446 257.29491,198.13417 C 254.42739,203.63057 254.51105,203.77777 260.96254,204.58736 C 264.59368,205.04303 268.26947,205.56625 269.13095,205.75007 C 269.99243,205.9339 270.69728,200.47859 270.69728,193.62717 z M 255.21608,196.70155 C 261.93416,186.44849 252.79241,174.67312 241.93121,179.58948 C 235.58327,182.4629 233.87449,190.18476 238.14446,196.70155 C 242.64871,203.57593 250.71183,203.57593 255.21608,196.70155 z M 597.53742,506.51317 C 585.27158,504.24949 562.43018,497.06406 554.07762,492.84162 C 544.66429,488.08293 531.80622,475.42347 527.05557,466.23696 C 523.2222,458.82425 522.54123,453.11016 521.71556,421.42918 L 520.76925,385.11758 L 562.28599,420.07287 C 585.12019,439.29827 617.61057,466.44616 634.48684,480.40146 C 651.36309,494.35678 665.22508,506.47963 665.29126,507.34111 C 665.4595,509.53123 610.23428,508.85639 597.53742,506.51317 z M 849.42139,505.60474 C 824.68312,498.95199 807.40248,488.70921 797.60803,474.89334 C 791.22177,465.885 785.60281,452.50836 788.2158,452.53396 C 789.01753,452.54181 813.16838,465.21853 841.88437,480.70445 L 894.09525,508.86065 L 877.38777,508.7466 C 868.19865,508.68387 855.61378,507.27004 849.42139,505.60474 z M 842.67256,478.17038 L 787.073,447.92387 L 785.78085,437.16905 C 785.07017,431.25389 784.48053,408.25424 784.47054,386.05873 C 784.45594,353.57579 784.99292,345.83494 787.22318,346.37846 C 788.74712,346.74982 811.29673,354.57206 837.33344,363.76117 L 884.6729,380.46866 L 884.6851,413.89741 C 884.69727,447.29316 886.45494,460.13687 891.44655,463.30515 C 892.90334,464.22981 897.94374,465.00073 902.64742,465.01832 C 916.96586,465.07184 919.02334,460.93862 919.89334,430.37332 L 920.63018,404.48566 L 911.01749,404.48566 L 901.40478,404.48566 L 901.40478,396.13192 C 901.40478,391.53736 902.23215,387.77818 903.24342,387.77818 C 904.25466,387.77818 930.28527,396.70624 961.08923,407.61832 C 991.8932,418.53039 1017.4013,427.45845 1017.7739,427.45845 C 1018.1465,427.45845 1018.1952,444.60973 1017.8822,465.5724 L 1017.3129,503.68635 L 985.90574,504.26048 L 954.49851,504.83459 L 949.82557,495.21626 L 945.15261,485.59793 L 937.5906,492.23746 C 929.08258,499.70758 916.47278,505.64248 905.58165,507.30268 C 899.14507,508.28385 891.63211,504.8047 842.67256,478.17038 z M 596.10783,444.8749 L 521.58299,382.55709 L 521.44626,345.34714 L 521.30953,308.13721 L 544.80443,320.67583 C 557.72662,327.57208 580.04678,339.61757 594.40477,347.4436 L 620.51021,361.67274 L 621.55443,411.35238 C 622.69399,465.56741 622.54692,464.98632 635.12926,464.98632 C 638.57518,464.98632 642.67457,464.17536 644.23904,463.18415 C 648.78303,460.30522 650.60411,445.45767 650.70158,410.49409 L 650.79253,377.86644 L 699.86174,404.22879 L 748.93093,430.59111 L 748.93997,441.04707 C 748.95156,454.47669 746.22972,463.7667 739.39302,473.63205 C 729.05994,488.54268 702.84849,502.96009 680.80917,505.85569 L 670.63266,507.1927 L 596.10783,444.8749 z M 337.52721,468.87908 C 337.52721,449.16078 337.9066,433.4192 338.37027,433.89779 C 339.56916,435.13525 366.09542,495.15302 367.75633,500.38607 C 369.07002,504.52517 368.38806,504.73056 353.33122,504.73056 L 337.52721,504.73056 L 337.52721,468.87908 z M 355.44382,463.96079 L 337.42419,423.19105 L 337.9978,389.47986 L 338.57143,355.76869 L 382.42857,428.604 C 406.55,468.66341 426.59898,502.17983 426.98186,503.08494 C 427.36475,503.99002 415.47974,504.73056 400.57073,504.73056 L 373.46346,504.73056 L 355.44382,463.96079 z M 413.18511,473.92614 C 402.90996,456.98371 381.65982,421.82126 365.96253,395.78737 L 337.42204,348.45302 L 337.99673,314.56231 L 338.57143,280.67158 L 388.17177,346.33525 L 437.77211,411.99891 L 437.77211,432.25931 L 437.77211,452.51968 L 452.91327,452.5377 L 468.05443,452.55572 L 483.19558,472.33812 C 494.27962,486.81974 498.33674,493.80997 498.33674,498.42553 L 498.33674,504.73056 L 465.10194,504.73056 L 431.86717,504.73056 L 413.18511,473.92614 z M 63.371857,439.33332 L 110.93197,375.92775 L 111.50016,414.2237 C 111.97699,446.36186 112.56465,452.51968 115.15492,452.51968 C 116.85253,452.51968 118.24149,452.94465 118.24149,453.46409 C 118.24149,453.9835 111.83439,465.02611 104.00348,478.0032 L 89.765464,501.59791 L 52.788604,502.16841 L 15.811746,502.73891 L 63.371857,439.33332 z M 93.776735,501.0758 C 94.24037,500.21432 100.93438,488.93677 108.65231,476.01458 L 122.68492,452.51968 L 144.65425,452.51968 C 156.73738,452.51968 166.31032,453.2963 165.92743,454.24554 C 165.54455,455.19475 160.64763,466.47231 155.04539,479.30676 L 144.85949,502.64213 L 118.89662,502.64213 C 104.61705,502.64213 93.313098,501.93728 93.776735,501.0758 z M 158.60833,477.63514 C 164.54824,463.88129 170.11301,452.60374 170.97449,452.57391 C 171.83597,452.54407 172.54081,463.79723 172.54081,477.5809 L 172.54081,502.64213 L 160.17466,502.64213 L 147.8085,502.64213 L 158.60833,477.63514 z M 14.309804,438.54422 L 14.863939,378.62319 L 62.897953,338.35687 L 110.93197,298.09054 L 111.50451,333.79585 L 112.07704,369.50115 L 63.747715,433.98321 C 37.166583,469.44833 15.044273,498.46526 14.587027,498.46526 C 14.129778,498.46526 14.005028,471.5008 14.309804,438.54422 z M 485.01494,470.33739 C 478.55825,461.75892 473.27552,454.24055 473.27552,453.62991 C 473.27552,453.01927 478.91429,452.51968 485.80613,452.51968 L 498.33674,452.51968 L 498.33674,469.22716 C 498.33674,478.41628 497.9807,485.93464 497.54556,485.93464 C 497.11041,485.93464 491.47164,478.91587 485.01494,470.33739 z M 699.34865,400.86747 L 650.79253,374.54076 L 650.79253,336.08407 C 650.79253,314.93289 651.59064,297.94065 652.56611,298.32353 C 653.5416,298.70641 675.62131,306.53804 701.63215,315.72716 L 748.9246,332.43464 L 748.9368,379.94655 C 748.9435,406.07809 748.71404,427.39899 748.42688,427.32632 C 748.13972,427.25366 726.05452,415.34718 699.34865,400.86747 z M 966.14628,406.48283 C 893.55972,380.84117 901.40478,384.77357 901.40478,374.03061 L 901.40478,364.80539 L 959.88097,364.80539 L 1018.3572,364.80539 L 1018.3572,394.04349 C 1018.3572,416.09482 1017.7155,423.25708 1015.7466,423.18192 C 1014.3108,423.12712 991.99066,415.61251 966.14628,406.48283 z M 387.12755,340.35916 L 337.52721,274.36251 L 337.52721,259.01932 L 337.52721,243.67614 L 344.92882,243.67614 C 351.46061,243.67614 357.35089,247.89316 395.05127,279.56025 L 437.77211,315.44436 L 437.77211,361.00924 C 437.77211,386.0699 437.53716,406.52498 437.25,406.46496 C 436.96284,406.40491 414.40774,376.65732 387.12755,340.35916 z M 833.53063,359.60623 L 785.49661,342.34652 L 786.00122,322.77154 C 786.62902,298.41715 789.59389,283.55777 795.6109,274.60937 C 801.28011,266.17826 819.40251,253.58954 833.53063,248.26846 L 843.9728,244.33562 L 926.37046,261.37631 L 1008.7681,278.41699 L 1011.3775,284.81205 C 1014.0797,291.43429 1018.3572,320.9062 1018.3572,332.90196 L 1018.3572,339.74417 L 968.52139,339.74417 L 918.68562,339.74417 L 917.63789,314.30495 C 916.68323,291.12444 916.17365,288.52844 911.89877,285.06685 C 905.82332,280.14725 896.88856,280.22724 890.67185,285.25689 C 885.81482,289.1865 885.73151,289.90065 885.0682,333.29091 C 884.69788,357.51571 883.75808,377.23024 882.97977,377.10097 C 882.20145,376.9717 859.94933,369.09907 833.53063,359.60623 z M 13.819942,342.6784 L 13.820164,309.46185 L 62.898175,283.03774 L 111.97619,256.61363 L 111.97619,274.94313 L 111.97619,293.27263 L 93.702376,308.7764 C 83.651781,317.30346 63.211219,334.48764 48.278905,346.96347 C 33.346592,359.43928 19.484602,371.05259 17.474483,372.77085 C 14.016,375.72716 13.819733,374.11104 13.819942,342.6784 z M 568.8877,330.76293 L 521.44208,305.28498 L 521.3758,278.78985 L 521.30953,252.29473 L 538.53912,258.2145 C 557.5731,264.75423 612.1444,284.21724 617.89967,286.51868 C 621.17233,287.82736 621.55443,291.55948 621.55443,322.2159 C 621.55443,348.26841 620.93045,356.42646 618.94389,356.34627 C 617.50809,356.28829 594.98281,344.77579 568.8877,330.76293 z M 698.31711,311.86808 L 650.81788,294.8428 L 650.8052,269.25947 L 650.79253,243.67614 L 699.87076,243.67614 L 748.94899,243.67614 L 748.94899,286.48906 C 748.94899,310.03617 748.24414,329.21004 747.38267,329.09767 C 746.52119,328.9853 724.44168,321.23198 698.31711,311.86808 z M 397.17894,277.61321 L 357.9136,244.72035 L 379.56905,244.13533 L 401.22449,243.5503 L 419.4983,253.32596 L 437.77211,263.10162 L 437.77211,286.80384 C 437.77211,299.84007 437.47336,310.50607 437.1082,310.50607 C 436.74306,310.50607 418.77489,295.70428 397.17894,277.61321 z M 14.273419,282.25824 L 14.863939,257.69398 L 33.659857,250.79778 C 51.562016,244.22951 53.870898,243.89623 82.215981,243.78886 L 111.97619,243.67614 L 111.97619,248.58404 C 111.97619,252.82923 106.26561,256.54688 69.685369,276.11588 C 46.425419,288.55905 24.309429,300.55842 20.538725,302.78116 L 13.682899,306.8225 L 14.273419,282.25824 z M 568.82144,265.99774 C 540.48661,255.87111 521.30953,247.93945 521.30953,246.34676 C 521.30953,244.2524 532.12493,243.67614 571.43198,243.67614 L 621.55443,243.67614 L 621.55443,263.51627 C 621.55443,278.09697 620.86241,283.30627 618.94389,283.16725 C 617.50809,283.06322 594.95298,275.33694 568.82144,265.99774 z M 930.64287,259.48516 C 891.01481,251.18334 857.18216,243.88361 855.4592,243.26354 C 848.82601,240.87635 874.54244,238.46874 903.49321,238.76653 C 936.52023,239.10624 955.76778,242.82083 977.31182,253.01279 C 987.95184,258.04633 1009.4009,274.984 1004.7823,274.70537 C 1003.6337,274.63608 970.27094,267.78699 930.64287,259.48516 z M 422.63096,251.89594 C 416.02628,248.48686 410.62245,245.24278 410.62245,244.68687 C 410.62245,244.13097 416.73113,243.67614 424.19728,243.67614 L 437.77211,243.67614 L 437.77211,250.98566 C 437.77211,255.0059 437.06727,258.24998 436.20579,258.19473 C 435.34431,258.13948 429.23563,255.30503 422.63096,251.89594 z M 13.819721,248.89722 C 13.819721,243.79816 14.173583,243.67868 28.960878,243.78495 L 44.102035,243.89377 L 30.527204,248.97138 C 13.72307,255.2569 13.819721,255.25733 13.819721,248.89722 z "
       id="path2236"
       sodipodi:nodetypes="cscccssssssssssssssssssssssssssscccccccccsscccccccccssscccccssscccccsssccccccsssccssssccsssccsssccssccsssccsssccscccsscccccsssccssccsscccssccsscccccccsscccsscccccssscccccccscccccccccsscccccsccccssccccccccscccccccccccccccccccccccsscccccccccscccccsccccccccccccsccscccsccccscccscccccccscccccccccsccccsccccccccccssssccccccccssccccccsssccccccccsccccccccscccccccsccccscccsccssssccscccscccccc"
       inkscape:export-filename="/home/mdrago/Desktop/lilug_logo.png"
       inkscape:export-xdpi="90"
       inkscape:export-ydpi="90" />
    <flowRoot
       xml:space="preserve"
       id="flowRoot2238"
       style="font-size:56px;font-style:normal;font-variant:normal;font-weight:bold;font-stretch:normal;text-align:start;line-height:100%;writing-mode:lr-tb;text-anchor:start;font-family:DejaVu Sans"
       transform="matrix(1.0428579,0,0,1.0428579,-4.8508086,-22.637521)"
       inkscape:export-filename="/home/mdrago/Desktop/lilug_logo.png"
       inkscape:export-xdpi="90"
       inkscape:export-ydpi="90"><flowRegion
         id="flowRegion2240"><rect
           id="rect2242"
           width="1005"
           height="102"
           x="16"
           y="522.09448"
           style="font-size:56px;font-style:normal;font-variant:normal;font-weight:bold;font-stretch:normal;text-align:start;line-height:100%;writing-mode:lr-tb;text-anchor:start;font-family:DejaVu Sans" /></flowRegion><flowPara
         id="flowPara2244">Long Island Linux Users Group</flowPara></flowRoot>  </g>
</svg>
